<svg xmlns="http://www.w3.org/2000/svg" width="960" height="560" viewBox="0 0 960 560">
<rect width="960" height="560" fill="#ffffff"/>
<text x="480" y="34" text-anchor="middle" font-family="sans-serif" font-size="22" fill="#111827">emt_measurement_electronic_voltage: causal estimates and diagnostics</text>
<rect x="92.0" y="70.0" width="700.0" height="400.0" fill="#f8fafc" stroke="#cbd5e1"/>
<line x1="92.0" y1="70.0" x2="792.0" y2="70.0" stroke="#e2e8f0"/>
<text x="82.0" y="74.0" text-anchor="end" font-family="monospace" font-size="12" fill="#475569">1.12</text>
<line x1="92.0" y1="170.0" x2="792.0" y2="170.0" stroke="#e2e8f0"/>
<text x="82.0" y="174.0" text-anchor="end" font-family="monospace" font-size="12" fill="#475569">0.8268</text>
<line x1="92.0" y1="270.0" x2="792.0" y2="270.0" stroke="#e2e8f0"/>
<text x="82.0" y="274.0" text-anchor="end" font-family="monospace" font-size="12" fill="#475569">0.5334</text>
<line x1="92.0" y1="370.0" x2="792.0" y2="370.0" stroke="#e2e8f0"/>
<text x="82.0" y="374.0" text-anchor="end" font-family="monospace" font-size="12" fill="#475569">0.24</text>
<line x1="92.0" y1="470.0" x2="792.0" y2="470.0" stroke="#e2e8f0"/>
<text x="82.0" y="474.0" text-anchor="end" font-family="monospace" font-size="12" fill="#475569">-0.05334</text>
<line x1="92.0" y1="70.0" x2="92.0" y2="470.0" stroke="#e2e8f0"/>
<text x="92.0" y="492.0" text-anchor="middle" font-family="monospace" font-size="12" fill="#475569">-0.0004895</text>
<line x1="267.0" y1="70.0" x2="267.0" y2="470.0" stroke="#e2e8f0"/>
<text x="267.0" y="492.0" text-anchor="middle" font-family="monospace" font-size="12" fill="#475569">0.002258</text>
<line x1="442.0" y1="70.0" x2="442.0" y2="470.0" stroke="#e2e8f0"/>
<text x="442.0" y="492.0" text-anchor="middle" font-family="monospace" font-size="12" fill="#475569">0.005005</text>
<line x1="617.0" y1="70.0" x2="617.0" y2="470.0" stroke="#e2e8f0"/>
<text x="617.0" y="492.0" text-anchor="middle" font-family="monospace" font-size="12" fill="#475569">0.007752</text>
<line x1="792.0" y1="70.0" x2="792.0" y2="470.0" stroke="#e2e8f0"/>
<text x="792.0" y="492.0" text-anchor="middle" font-family="monospace" font-size="12" fill="#475569">0.0105</text>
<polyline points="123.818,451.818 124.455,451.818 125.092,451.818 125.729,451.818 126.366,451.818 127.003,451.818 127.640,451.818 128.277,451.818 128.914,451.818 129.551,451.818 130.188,451.818 130.825,451.818 131.462,451.818 132.099,451.818 132.736,451.818 133.373,451.818 134.010,451.818 134.647,451.818 135.284,451.818 135.921,451.818 136.558,451.818 137.195,451.818 137.832,451.818 138.469,451.818 139.106,451.818 139.743,451.818 140.380,451.818 141.017,451.818 141.654,451.818 142.291,451.818 142.928,451.818 143.565,451.818 144.202,451.818 144.839,451.818 145.476,451.818 146.113,451.818 146.750,451.818 147.387,451.818 148.024,451.818 148.661,451.818 149.298,451.818 149.935,451.818 150.572,451.818 151.209,451.818 151.846,451.818 152.483,451.818 153.120,451.818 153.757,451.818 154.394,451.818 155.031,451.818 155.668,451.818 156.305,451.818 156.942,451.818 157.579,451.818 158.216,451.818 158.853,451.818 159.490,451.818 160.127,451.818 160.764,451.818 161.401,451.818 162.038,451.818 162.675,451.818 163.312,451.818 163.949,451.818 164.586,451.818 165.223,451.818 165.860,451.818 166.497,451.818 167.134,451.818 167.771,451.818 168.408,451.818 169.045,451.818 169.682,451.818 170.319,451.818 170.956,451.818 171.593,451.818 172.230,451.818 172.867,451.818 173.504,451.818 174.141,451.818 174.778,451.818 175.415,451.818 176.052,451.818 176.689,451.818 177.326,451.818 177.963,451.818 178.600,451.818 179.237,451.818 179.874,451.818 180.511,451.818 181.148,451.818 181.785,451.818 182.422,451.818 183.059,451.818 183.696,451.818 184.333,451.818 184.970,451.818 185.607,451.818 186.244,451.818 186.881,451.818 187.518,451.818 188.155,451.818 188.792,451.818 189.429,451.818 190.066,451.818 190.703,451.818 191.340,451.818 191.977,451.818 192.614,451.818 193.251,451.818 193.888,451.818 194.525,451.818 195.162,451.818 195.799,451.818 196.436,451.818 197.073,451.818 197.710,451.818 198.347,451.818 198.984,451.818 199.621,451.818 200.258,451.818 200.895,451.818 201.532,451.818 202.169,451.818 202.806,451.818 203.443,451.818 204.080,451.818 204.717,451.818 205.354,451.818 205.991,451.818 206.628,451.818 207.265,451.818 207.902,451.818 208.539,451.818 209.176,451.818 209.813,451.818 210.450,451.818 211.087,451.818 211.724,451.818 212.361,451.818 212.998,451.818 213.635,451.818 214.272,451.818 214.909,451.818 215.546,451.818 216.183,451.818 216.820,451.818 217.457,451.818 218.094,451.818 218.731,451.818 219.368,451.818 220.005,451.818 220.642,451.818 221.279,451.818 221.916,451.818 222.553,451.818 223.190,451.818 223.827,451.818 224.464,451.818 225.101,451.818 225.738,451.818 226.375,451.818 227.012,451.818 227.649,451.818 228.286,451.818 228.923,451.818 229.560,451.818 230.197,451.818 230.834,451.818 231.471,451.818 232.108,451.818 232.745,451.818 233.382,451.818 234.019,451.818 234.656,451.818 235.293,451.818 235.930,451.818 236.567,451.818 237.204,451.818 237.841,451.818 238.478,451.818 239.115,451.818 239.752,451.818 240.389,451.818 241.026,451.818 241.663,451.818 242.300,451.818 242.937,451.818 243.574,451.818 244.211,451.818 244.848,451.818 245.485,451.818 246.122,451.818 246.759,451.818 247.396,451.818 248.033,451.818 248.670,451.818 249.307,451.818 249.944,451.818 250.581,451.818 251.218,451.818 251.855,451.818 252.492,451.818 253.129,451.818 253.766,451.818 254.403,451.818 255.040,451.818 255.677,451.818 256.314,451.818 256.951,451.818 257.588,451.818 258.225,451.818 258.862,451.818 259.499,451.818 260.136,451.818 260.773,451.818 261.410,451.818 262.047,451.818 262.684,451.818 263.321,451.818 263.958,451.818 264.595,451.818 265.232,451.818 265.869,451.818 266.506,451.818 267.143,451.818 267.780,451.818 268.417,451.818 269.054,451.818 269.691,451.818 270.328,451.818 270.965,451.818 271.602,451.818 272.239,451.818 272.876,451.818 273.513,451.818 274.150,451.818 274.787,451.818 275.424,451.818 276.061,451.818 276.698,451.818 277.335,451.818 277.972,451.818 278.609,451.818 279.246,451.818 279.883,451.818 280.520,451.818 281.157,451.818 281.794,451.818 282.431,451.818 283.068,451.818 283.705,451.818 284.342,451.818 284.979,451.818 285.616,451.818 286.253,451.818 286.890,451.818 287.527,451.818 288.164,451.818 288.801,451.818 289.438,451.818 290.075,451.818 290.712,451.818 291.349,451.818 291.986,451.818 292.623,451.818 293.260,451.818 293.897,451.818 294.534,451.818 295.171,451.818 295.808,451.818 296.445,451.818 297.082,451.818 297.719,451.818 298.356,451.818 298.993,451.818 299.630,451.818 300.267,451.818 300.904,451.818 301.541,451.818 302.178,451.818 302.815,451.818 303.452,451.818 304.089,451.818 304.726,451.818 305.363,451.818 306.000,451.818 306.637,451.818 307.274,451.818 307.911,451.818 308.548,451.818 309.185,451.818 309.822,451.818 310.459,451.818 311.096,451.818 311.733,451.818 312.370,451.818 313.007,451.818 313.644,451.818 314.281,451.818 314.918,451.818 315.555,451.818 316.192,451.818 316.829,451.818 317.466,451.818 318.103,451.818 318.740,451.818 319.377,451.818 320.014,451.818 320.651,451.818 321.288,451.818 321.925,451.818 322.562,451.818 323.199,451.818 323.836,451.818 324.473,451.818 325.110,451.818 325.747,451.818 326.384,451.818 327.021,451.818 327.658,451.818 328.295,451.818 328.932,451.818 329.569,451.818 330.206,451.818 330.843,451.818 331.480,451.818 332.117,451.818 332.754,451.818 333.391,451.818 334.028,451.818 334.665,451.818 335.302,451.818 335.939,451.818 336.576,451.818 337.213,451.818 337.850,451.818 338.487,451.818 339.124,451.818 339.761,451.818 340.398,451.818 341.035,451.818 341.672,451.818 342.309,451.818 342.946,451.818 343.583,451.818 344.220,451.818 344.857,451.818 345.494,451.818 346.131,451.818 346.768,451.818 347.405,451.818 348.042,451.818 348.679,451.818 349.316,451.818 349.953,451.818 350.590,451.818 351.227,451.818 351.864,451.818 352.501,451.818 353.138,451.818 353.775,451.818 354.412,451.818 355.049,451.818 355.686,451.818 356.323,451.818 356.960,451.818 357.597,451.818 358.234,451.818 358.871,451.818 359.508,451.818 360.145,451.818 360.782,451.818 361.419,451.818 362.056,451.818 362.693,451.818 363.330,451.818 363.967,451.818 364.604,451.818 365.241,451.818 365.878,451.818 366.515,451.818 367.152,451.818 367.789,451.818 368.426,451.818 369.063,451.818 369.700,451.818 370.337,451.818 370.974,451.818 371.611,451.818 372.248,451.818 372.885,451.818 373.522,451.818 374.159,451.818 374.796,451.818 375.433,451.818 376.070,451.818 376.707,451.818 377.344,451.818 377.981,451.818 378.618,451.818 379.255,451.818 379.892,451.818 380.529,451.818 381.166,263.189 381.803,263.189 382.440,263.189 383.077,263.189 383.714,263.189 384.351,260.020 384.988,260.020 385.625,260.020 386.262,260.020 386.899,260.020 387.536,256.861 388.173,256.861 388.810,256.861 389.447,256.861 390.084,256.861 390.721,253.712 391.358,253.712 391.995,253.712 392.632,253.712 393.269,253.712 393.906,250.574 394.543,250.574 395.180,250.574 395.817,250.574 396.454,250.574 397.091,247.449 397.728,247.449 398.365,247.449 399.002,247.449 399.639,247.449 400.276,244.337 400.913,244.337 401.550,244.337 402.187,244.337 402.824,244.337 403.461,241.240 404.098,241.240 404.735,241.240 405.372,241.240 406.009,241.240 406.646,238.161 407.283,238.161 407.920,238.161 408.557,238.161 409.194,238.161 409.831,235.099 410.468,235.099 411.105,235.099 411.742,235.099 412.379,235.099 413.016,232.057 413.653,232.057 414.290,232.057 414.927,232.057 415.564,232.057 416.201,229.037 416.838,229.037 417.475,229.037 418.112,229.037 418.749,229.037 419.386,226.040 420.023,226.040 420.660,226.040 421.297,226.040 421.934,226.040 422.571,223.068 423.208,223.068 423.845,223.068 424.482,223.068 425.119,223.068 425.756,220.123 426.393,220.123 427.030,220.123 427.667,220.123 428.304,220.123 428.941,217.207 429.578,217.207 430.215,217.207 430.852,217.207 431.489,217.207 432.126,214.320 432.763,214.320 433.400,214.320 434.037,214.320 434.674,214.320 435.311,211.466 435.948,211.466 436.585,211.466 437.222,211.466 437.859,211.466 438.496,208.645 439.133,208.645 439.770,208.645 440.407,208.645 441.044,208.645 441.681,205.859 442.319,205.859 442.956,205.859 443.593,205.859 444.230,205.859 444.867,203.110 445.504,203.110 446.141,203.110 446.778,203.110 447.415,203.110 448.052,200.429 448.689,200.429 449.326,200.429 449.963,200.429 450.600,200.429 451.237,198.063 451.874,198.063 452.511,198.063 453.148,198.063 453.785,198.063 454.422,195.955 455.059,195.955 455.696,195.955 456.333,195.955 456.970,195.955 457.607,194.060 458.244,194.060 458.881,194.060 459.518,194.060 460.155,194.060 460.792,192.345 461.429,192.345 462.066,192.345 462.703,192.345 463.340,192.345 463.977,190.784 464.614,190.784 465.251,190.784 465.888,190.784 466.525,190.784 467.162,189.353 467.799,189.353 468.436,189.353 469.073,189.353 469.710,189.353 470.347,188.038 470.984,188.038 471.621,188.038 472.258,188.038 472.895,188.038 473.532,186.824 474.169,186.824 474.806,186.824 475.443,186.824 476.080,186.824 476.717,185.701 477.354,185.701 477.991,185.701 478.628,185.701 479.265,185.701 479.902,184.659 480.539,184.659 481.176,184.659 481.813,184.659 482.450,184.659 483.087,183.693 483.724,183.693 484.361,183.693 484.998,183.693 485.635,183.693 486.272,182.796 486.909,182.796 487.546,182.796 488.183,182.796 488.820,182.796 489.457,181.964 490.094,181.964 490.731,181.964 491.368,181.964 492.005,181.964 492.642,181.194 493.279,181.194 493.916,181.194 494.553,181.194 495.190,181.194 495.827,180.483 496.464,180.483 497.101,180.483 497.738,180.483 498.375,180.483 499.012,179.829 499.649,179.829 500.286,179.829 500.923,179.829 501.560,179.829 502.197,179.230 502.834,179.230 503.471,179.230 504.108,179.230 504.745,179.230 505.382,178.684 506.019,178.684 506.656,178.684 507.293,178.684 507.930,178.684 508.567,178.191 509.204,178.191 509.841,178.191 510.478,178.191 511.115,178.191 511.752,177.750 512.389,177.750 513.026,177.750 513.663,177.750 514.300,177.750 514.937,177.362 515.574,177.362 516.211,177.362 516.848,177.362 517.485,177.362 518.122,177.024 518.759,177.024 519.396,177.024 520.033,177.024 520.670,177.024 521.307,176.738 521.944,176.738 522.581,176.738 523.218,176.738 523.855,176.738 524.492,176.504 525.129,176.504 525.766,176.504 526.403,176.504 527.040,176.504 527.677,176.321 528.314,176.321 528.951,176.321 529.588,176.321 530.225,176.321 530.862,176.190 531.499,176.190 532.136,176.190 532.773,176.190 533.410,176.190 534.047,176.111 534.684,176.111 535.321,176.111 535.958,176.111 536.595,176.111 537.232,176.084 537.869,176.084 538.506,176.084 539.143,176.084 539.780,176.084 540.417,176.110 541.054,176.110 541.691,176.110 542.328,176.110 542.965,176.110 543.602,176.190 544.239,176.190 544.876,176.190 545.513,176.190 546.150,176.190 546.787,176.323 547.424,176.323 548.061,176.323 548.698,176.323 549.335,176.323 549.972,176.511 550.609,176.511 551.246,176.511 551.883,176.511 552.520,176.511 553.157,176.753 553.794,176.753 554.431,176.753 555.068,176.753 555.705,176.753 556.342,177.050 556.979,177.050 557.616,177.050 558.253,177.050 558.890,177.050 559.527,177.403 560.164,177.403 560.801,177.403 561.438,177.403 562.075,177.403 562.712,177.812 563.349,177.812 563.986,177.812 564.623,177.812 565.260,177.812 565.897,178.277 566.534,178.277 567.171,178.277 567.808,178.277 568.445,178.277 569.082,178.800 569.719,178.800 570.356,178.800 570.993,178.800 571.630,178.800 572.267,179.380 572.904,179.380 573.541,179.380 574.178,179.380 574.815,179.380 575.452,180.018 576.089,180.018 576.726,180.018 577.363,180.018 578.000,180.018 578.637,180.715 579.274,180.715 579.911,180.715 580.548,180.715 581.185,180.715 581.822,181.471 582.459,181.471 583.096,181.471 583.733,181.471 584.370,181.471 585.007,182.286 585.644,182.286 586.281,182.286 586.918,182.286 587.555,182.286 588.192,183.162 588.829,183.162 589.466,183.162 590.103,183.162 590.740,183.162 591.377,184.097 592.014,184.097 592.651,184.097 593.288,184.097 593.925,184.097 594.562,185.094 595.199,185.094 595.836,185.094 596.473,185.094 597.110,185.094 597.747,186.152 598.384,186.152 599.021,186.152 599.658,186.152 600.295,186.152 600.932,187.271 601.569,187.271 602.206,187.271 602.843,187.271 603.480,187.271 604.117,188.453 604.754,188.453 605.391,188.453 606.028,188.453 606.665,188.453 607.302,189.698 607.939,189.698 608.576,189.698 609.213,189.698 609.850,189.698 610.487,191.005 611.124,191.005 611.761,191.005 612.398,191.005 613.035,191.005 613.672,192.376 614.309,192.376 614.946,192.376 615.583,192.376 616.220,192.376 616.857,193.812 617.494,193.812 618.131,193.812 618.768,193.812 619.405,193.812 620.042,195.311 620.679,195.311 621.316,195.311 621.953,195.311 622.590,195.311 623.227,196.875 623.864,196.875 624.501,196.875 625.138,196.875 625.775,196.875 626.412,198.505 627.049,198.505 627.686,198.505 628.323,198.505 628.960,198.505 629.597,200.200 630.234,200.200 630.871,200.200 631.508,200.200 632.145,200.200 632.782,201.961 633.419,201.961 634.056,201.961 634.693,201.961 635.330,201.961 635.967,203.789 636.604,203.789 637.241,203.789 637.878,203.789 638.515,203.789 639.152,205.684 639.789,205.684 640.426,205.684 641.063,205.684 641.700,205.684 642.337,207.647 642.974,207.647 643.611,207.647 644.248,207.647 644.885,207.647 645.522,209.678 646.159,209.678 646.796,209.678 647.433,209.678 648.070,209.678 648.707,211.778 649.344,211.778 649.981,211.778 650.618,211.778 651.255,211.778 651.892,213.947 652.529,213.947 653.166,213.947 653.803,213.947 654.440,213.947 655.077,216.186 655.714,216.186 656.351,216.186 656.988,216.186 657.625,216.186 658.262,218.495 658.899,218.495 659.536,218.495 660.173,218.495 660.810,218.495 661.447,220.876 662.084,220.876 662.721,220.876 663.358,220.876 663.995,220.876 664.632,223.329 665.269,223.329 665.906,223.329 666.543,223.329 667.180,223.329 667.817,225.854 668.454,225.854 669.091,225.854 669.728,225.854 670.365,225.854 671.002,228.453 671.639,228.453 672.276,228.453 672.913,228.453 673.550,228.453 674.187,231.127 674.824,231.127 675.461,231.127 676.098,231.127 676.735,231.127 677.372,233.876 678.009,233.876 678.646,233.876 679.283,233.876 679.920,233.876 680.557,236.702 681.194,236.702 681.831,236.702 682.468,236.702 683.105,236.702 683.742,239.606 684.379,239.606 685.016,239.606 685.653,239.606 686.290,239.606 686.927,242.589 687.564,242.589 688.201,242.589 688.838,242.589 689.475,242.589 690.112,245.652 690.749,245.652 691.386,245.652 692.023,245.652 692.660,245.652 693.297,248.798 693.934,248.798 694.571,248.798 695.208,248.798 695.845,248.798 696.482,252.027 697.119,252.027 697.756,252.027 698.393,252.027 699.030,252.027 699.667,255.342 700.304,255.342 700.941,255.342 701.578,255.342 702.215,255.342 702.852,258.705 703.489,258.705 704.126,258.705 704.763,258.705 705.400,258.705 706.037,261.788 706.674,261.788 707.311,261.788 707.948,261.788 708.585,261.788 709.222,264.644 709.859,264.644 710.496,264.644 711.133,264.644 711.770,264.644 712.407,267.316 713.044,267.316 713.681,267.316 714.318,267.316 714.955,267.316 715.592,269.839 716.229,269.839 716.866,269.839 717.503,269.839 718.140,269.839 718.777,272.242 719.414,272.242 720.051,272.242 720.688,272.242 721.325,272.242 721.962,274.548 722.599,274.548 723.236,274.548 723.873,274.548 724.510,274.548 725.147,276.777 725.784,276.777 726.421,276.777 727.058,276.777 727.695,276.777 728.332,278.945 728.969,278.945 729.606,278.945 730.243,278.945 730.880,278.945 731.517,281.064 732.154,281.064 732.791,281.064 733.428,281.064 734.065,281.064 734.702,283.146 735.339,283.146 735.976,283.146 736.613,283.146 737.250,283.146 737.887,285.200 738.524,285.200 739.161,285.200 739.798,285.200 740.435,285.200 741.072,287.232 741.709,287.232 742.346,287.232 742.983,287.232 743.620,287.232 744.257,289.250 744.894,289.250 745.531,289.250 746.168,289.250 746.805,289.250 747.442,291.259 748.079,291.259 748.716,291.259 749.353,291.259 749.990,291.259 750.627,293.261 751.264,293.261 751.901,293.261 752.538,293.261 753.175,293.261 753.812,295.261 754.449,295.261 755.086,295.261 755.723,295.261 756.360,295.261 756.997,297.261 757.634,297.261 758.271,297.261 758.908,297.261 759.545,297.261 760.182,299.263" fill="none" stroke="#2563eb" stroke-width="2"/>
<polyline points="123.818,451.818 124.455,451.818 125.092,451.818 125.729,451.818 126.366,451.818 127.003,451.818 127.640,451.818 128.277,451.818 128.914,451.818 129.551,451.818 130.188,451.818 130.825,451.818 131.462,451.818 132.099,451.818 132.736,451.818 133.373,451.818 134.010,451.818 134.647,451.818 135.284,451.818 135.921,451.818 136.558,451.818 137.195,451.818 137.832,451.818 138.469,451.818 139.106,451.818 139.743,451.818 140.380,451.818 141.017,451.818 141.654,451.818 142.291,451.818 142.928,451.818 143.565,451.818 144.202,451.818 144.839,451.818 145.476,451.818 146.113,451.818 146.750,451.818 147.387,451.818 148.024,451.818 148.661,451.818 149.298,451.818 149.935,451.818 150.572,451.818 151.209,451.818 151.846,451.818 152.483,451.818 153.120,451.818 153.757,451.818 154.394,451.818 155.031,451.818 155.668,451.818 156.305,451.818 156.942,451.818 157.579,451.818 158.216,451.818 158.853,451.818 159.490,451.818 160.127,451.818 160.764,451.818 161.401,451.818 162.038,451.818 162.675,451.818 163.312,451.818 163.949,451.818 164.586,451.818 165.223,451.818 165.860,451.818 166.497,451.818 167.134,451.818 167.771,451.818 168.408,451.818 169.045,451.818 169.682,451.818 170.319,451.818 170.956,451.818 171.593,451.818 172.230,451.818 172.867,451.818 173.504,451.818 174.141,451.818 174.778,451.818 175.415,451.818 176.052,451.818 176.689,451.818 177.326,451.818 177.963,451.818 178.600,451.818 179.237,451.818 179.874,451.818 180.511,451.818 181.148,451.818 181.785,451.818 182.422,451.818 183.059,451.818 183.696,451.818 184.333,451.818 184.970,451.818 185.607,451.818 186.244,451.818 186.881,451.818 187.518,451.818 188.155,451.818 188.792,451.818 189.429,451.818 190.066,451.818 190.703,451.818 191.340,451.818 191.977,451.818 192.614,451.818 193.251,451.818 193.888,451.818 194.525,451.818 195.162,451.818 195.799,451.818 196.436,451.818 197.073,451.818 197.710,451.818 198.347,451.818 198.984,451.818 199.621,451.818 200.258,451.818 200.895,451.818 201.532,451.818 202.169,451.818 202.806,451.818 203.443,451.818 204.080,451.818 204.717,451.818 205.354,451.818 205.991,451.818 206.628,451.818 207.265,451.818 207.902,451.818 208.539,451.818 209.176,451.818 209.813,451.818 210.450,451.818 211.087,451.818 211.724,451.818 212.361,451.818 212.998,451.818 213.635,451.818 214.272,451.818 214.909,451.818 215.546,451.818 216.183,451.818 216.820,451.818 217.457,451.818 218.094,451.818 218.731,451.818 219.368,451.818 220.005,451.818 220.642,451.818 221.279,451.818 221.916,451.818 222.553,451.818 223.190,451.818 223.827,451.818 224.464,451.818 225.101,451.818 225.738,451.818 226.375,451.818 227.012,451.818 227.649,451.818 228.286,451.818 228.923,451.818 229.560,451.818 230.197,451.818 230.834,451.818 231.471,451.818 232.108,451.818 232.745,451.818 233.382,451.818 234.019,451.818 234.656,451.818 235.293,451.818 235.930,451.818 236.567,451.818 237.204,451.818 237.841,451.818 238.478,451.818 239.115,451.818 239.752,451.818 240.389,451.818 241.026,451.818 241.663,451.818 242.300,451.818 242.937,451.818 243.574,451.818 244.211,451.818 244.848,451.818 245.485,451.818 246.122,451.818 246.759,451.818 247.396,451.818 248.033,451.818 248.670,451.818 249.307,451.818 249.944,451.818 250.581,451.818 251.218,451.818 251.855,451.818 252.492,451.818 253.129,451.818 253.766,451.818 254.403,451.818 255.040,451.818 255.677,451.818 256.314,451.818 256.951,451.818 257.588,451.818 258.225,451.818 258.862,451.818 259.499,451.818 260.136,451.818 260.773,451.818 261.410,451.818 262.047,451.818 262.684,451.818 263.321,451.818 263.958,451.818 264.595,451.818 265.232,451.818 265.869,451.818 266.506,451.818 267.143,451.818 267.780,451.818 268.417,451.818 269.054,451.818 269.691,451.818 270.328,451.818 270.965,451.818 271.602,451.818 272.239,451.818 272.876,451.818 273.513,451.818 274.150,451.818 274.787,451.818 275.424,451.818 276.061,451.818 276.698,451.818 277.335,451.818 277.972,451.818 278.609,451.818 279.246,451.818 279.883,451.818 280.520,451.818 281.157,451.818 281.794,451.818 282.431,451.818 283.068,451.818 283.705,451.818 284.342,451.818 284.979,451.818 285.616,451.818 286.253,451.818 286.890,451.818 287.527,451.818 288.164,451.818 288.801,451.818 289.438,451.818 290.075,451.818 290.712,451.818 291.349,451.818 291.986,451.818 292.623,451.818 293.260,451.818 293.897,451.818 294.534,451.818 295.171,451.818 295.808,451.818 296.445,451.818 297.082,451.818 297.719,451.818 298.356,451.818 298.993,451.818 299.630,451.818 300.267,451.818 300.904,451.818 301.541,451.818 302.178,451.818 302.815,451.818 303.452,451.818 304.089,451.818 304.726,451.818 305.363,451.818 306.000,451.818 306.637,451.818 307.274,451.818 307.911,451.818 308.548,451.818 309.185,451.818 309.822,451.818 310.459,451.818 311.096,451.818 311.733,451.818 312.370,451.818 313.007,451.818 313.644,451.818 314.281,451.818 314.918,451.818 315.555,451.818 316.192,451.818 316.829,451.818 317.466,451.818 318.103,451.818 318.740,451.818 319.377,451.818 320.014,451.818 320.651,451.818 321.288,451.818 321.925,451.818 322.562,451.818 323.199,451.818 323.836,451.818 324.473,451.818 325.110,451.818 325.747,451.818 326.384,451.818 327.021,451.818 327.658,451.818 328.295,451.818 328.932,451.818 329.569,451.818 330.206,451.818 330.843,451.818 331.480,451.818 332.117,451.818 332.754,451.818 333.391,451.818 334.028,451.818 334.665,451.818 335.302,451.818 335.939,451.818 336.576,451.818 337.213,451.818 337.850,451.818 338.487,451.818 339.124,451.818 339.761,451.818 340.398,451.818 341.035,451.818 341.672,451.818 342.309,451.818 342.946,451.818 343.583,451.818 344.220,451.818 344.857,451.818 345.494,451.818 346.131,451.818 346.768,451.818 347.405,451.818 348.042,451.818 348.679,451.818 349.316,451.818 349.953,451.818 350.590,451.818 351.227,451.818 351.864,451.818 352.501,451.818 353.138,451.818 353.775,451.818 354.412,451.818 355.049,451.818 355.686,451.818 356.323,451.818 356.960,451.818 357.597,451.818 358.234,451.818 358.871,451.818 359.508,451.818 360.145,451.818 360.782,451.818 361.419,451.818 362.056,451.818 362.693,451.818 363.330,451.818 363.967,451.818 364.604,451.818 365.241,451.818 365.878,451.818 366.515,451.818 367.152,451.818 367.789,451.818 368.426,451.818 369.063,451.818 369.700,451.818 370.337,451.818 370.974,451.818 371.611,451.818 372.248,451.818 372.885,451.818 373.522,451.818 374.159,451.818 374.796,451.818 375.433,451.818 376.070,451.818 376.707,451.818 377.344,451.818 377.981,451.818 378.618,451.818 379.255,451.818 379.892,451.818 380.529,451.818 381.166,233.182 381.803,233.182 382.440,233.182 383.077,233.182 383.714,233.182 384.351,228.141 384.988,228.141 385.625,228.141 386.262,228.141 386.899,228.141 387.536,223.084 388.173,223.084 388.810,223.084 389.447,223.084 390.084,223.084 390.721,218.021 391.358,218.021 391.995,218.021 392.632,218.021 393.269,218.021 393.906,212.960 394.543,212.960 395.180,212.960 395.817,212.960 396.454,212.960 397.091,207.910 397.728,207.910 398.365,207.910 399.002,207.910 399.639,207.910 400.276,202.877 400.913,202.877 401.550,202.877 402.187,202.877 402.824,202.877 403.461,197.869 404.098,197.869 404.735,197.869 405.372,197.869 406.009,197.869 406.646,192.890 407.283,192.890 407.920,192.890 408.557,192.890 409.194,192.890 409.831,187.945 410.468,187.945 411.105,187.945 411.742,187.945 412.379,187.945 413.016,183.040 413.653,183.040 414.290,183.040 414.927,183.040 415.564,183.040 416.201,178.178 416.838,178.178 417.475,178.178 418.112,178.178 418.749,178.178 419.386,173.363 420.023,173.363 420.660,173.363 421.297,173.363 421.934,173.363 422.571,168.599 423.208,168.599 423.845,168.599 424.482,168.599 425.119,168.599 425.756,163.888 426.393,163.888 427.030,163.888 427.667,163.888 428.304,163.888 428.941,159.234 429.578,159.234 430.215,159.234 430.852,159.234 431.489,159.234 432.126,154.639 432.763,154.639 433.400,154.639 434.037,154.639 434.674,154.639 435.311,150.105 435.948,150.105 436.585,150.105 437.222,150.105 437.859,150.105 438.496,145.635 439.133,145.635 439.770,145.635 440.407,145.635 441.044,145.635 441.681,141.231 442.319,141.231 442.956,141.231 443.593,141.231 444.230,141.231 444.867,136.894 445.504,136.894 446.141,136.894 446.778,136.894 447.415,136.894 448.052,132.656 448.689,132.656 449.326,132.656 449.963,132.656 450.600,132.656 451.237,128.753 451.874,128.753 452.511,128.753 453.148,128.753 453.785,128.753 454.422,125.150 455.059,125.150 455.696,125.150 456.333,125.150 456.970,125.150 457.607,121.815 458.244,121.815 458.881,121.815 459.518,121.815 460.155,121.815 460.792,118.723 461.429,118.723 462.066,118.723 462.703,118.723 463.340,118.723 463.977,115.850 464.614,115.850 465.251,115.850 465.888,115.850 466.525,115.850 467.162,113.178 467.799,113.178 468.436,113.178 469.073,113.178 469.710,113.178 470.347,110.691 470.984,110.691 471.621,110.691 472.258,110.691 472.895,110.691 473.532,108.374 474.169,108.374 474.806,108.374 475.443,108.374 476.080,108.374 476.717,106.217 477.354,106.217 477.991,106.217 478.628,106.217 479.265,106.217 479.902,104.210 480.539,104.210 481.176,104.210 481.813,104.210 482.450,104.210 483.087,102.343 483.724,102.343 484.361,102.343 484.998,102.343 485.635,102.343 486.272,100.611 486.909,100.611 487.546,100.611 488.183,100.611 488.820,100.611 489.457,99.007 490.094,99.007 490.731,99.007 491.368,99.007 492.005,99.007 492.642,97.526 493.279,97.526 493.916,97.526 494.553,97.526 495.190,97.526 495.827,96.164 496.464,96.164 497.101,96.164 497.738,96.164 498.375,96.164 499.012,94.918 499.649,94.918 500.286,94.918 500.923,94.918 501.560,94.918 502.197,93.783 502.834,93.783 503.471,93.783 504.108,93.783 504.745,93.783 505.382,92.758 506.019,92.758 506.656,92.758 507.293,92.758 507.930,92.758 508.567,91.841 509.204,91.841 509.841,91.841 510.478,91.841 511.115,91.841 511.752,91.029 512.389,91.029 513.026,91.029 513.663,91.029 514.300,91.029 514.937,90.322 515.574,90.322 516.211,90.322 516.848,90.322 517.485,90.322 518.122,89.716 518.759,89.716 519.396,89.716 520.033,89.716 520.670,89.716 521.307,89.213 521.944,89.213 522.581,89.213 523.218,89.213 523.855,89.213 524.492,88.809 525.129,88.809 525.766,88.809 526.403,88.809 527.040,88.809 527.677,88.505 528.314,88.505 528.951,88.505 529.588,88.505 530.225,88.505 530.862,88.300 531.499,88.300 532.136,88.300 532.773,88.300 533.410,88.300 534.047,88.192 534.684,88.192 535.321,88.192 535.958,88.192 536.595,88.192 537.232,88.182 537.869,88.182 538.506,88.182 539.143,88.182 539.780,88.182 540.417,88.268 541.054,88.268 541.691,88.268 542.328,88.268 542.965,88.268 543.602,88.450 544.239,88.450 544.876,88.450 545.513,88.450 546.150,88.450 546.787,88.728 547.424,88.728 548.061,88.728 548.698,88.728 549.335,88.728 549.972,89.101 550.609,89.101 551.246,89.101 551.883,89.101 552.520,89.101 553.157,89.568 553.794,89.568 554.431,89.568 555.068,89.568 555.705,89.568 556.342,90.129 556.979,90.129 557.616,90.129 558.253,90.129 558.890,90.129 559.527,90.783 560.164,90.783 560.801,90.783 561.438,90.783 562.075,90.783 562.712,91.530 563.349,91.530 563.986,91.530 564.623,91.530 565.260,91.530 565.897,92.369 566.534,92.369 567.171,92.369 567.808,92.369 568.445,92.369 569.082,93.301 569.719,93.301 570.356,93.301 570.993,93.301 571.630,93.301 572.267,94.323 572.904,94.323 573.541,94.323 574.178,94.323 574.815,94.323 575.452,95.436 576.089,95.436 576.726,95.436 577.363,95.436 578.000,95.436 578.637,96.638 579.274,96.638 579.911,96.638 580.548,96.638 581.185,96.638 581.822,97.931 582.459,97.931 583.096,97.931 583.733,97.931 584.370,97.931 585.007,99.311 585.644,99.311 586.281,99.311 586.918,99.311 587.555,99.311 588.192,100.780 588.829,100.780 589.466,100.780 590.103,100.780 590.740,100.780 591.377,102.337 592.014,102.337 592.651,102.337 593.288,102.337 593.925,102.337 594.562,103.980 595.199,103.980 595.836,103.980 596.473,103.980 597.110,103.980 597.747,105.708 598.384,105.708 599.021,105.708 599.658,105.708 600.295,105.708 600.932,107.522 601.569,107.522 602.206,107.522 602.843,107.522 603.480,107.522 604.117,109.421 604.754,109.421 605.391,109.421 606.028,109.421 606.665,109.421 607.302,111.403 607.939,111.403 608.576,111.403 609.213,111.403 609.850,111.403 610.487,113.468 611.124,113.468 611.761,113.468 612.398,113.468 613.035,113.468 613.672,115.614 614.309,115.614 614.946,115.614 615.583,115.614 616.220,115.614 616.857,117.842 617.494,117.842 618.131,117.842 618.768,117.842 619.405,117.842 620.042,120.150 620.679,120.150 621.316,120.150 621.953,120.150 622.590,120.150 623.227,122.536 623.864,122.536 624.501,122.536 625.138,122.536 625.775,122.536 626.412,125.002 627.049,125.002 627.686,125.002 628.323,125.002 628.960,125.002 629.597,127.544 630.234,127.544 630.871,127.544 631.508,127.544 632.145,127.544 632.782,130.163 633.419,130.163 634.056,130.163 634.693,130.163 635.330,130.163 635.967,132.856 636.604,132.856 637.241,132.856 637.878,132.856 638.515,132.856 639.152,135.624 639.789,135.624 640.426,135.624 641.063,135.624 641.700,135.624 642.337,138.466 642.974,138.466 643.611,138.466 644.248,138.466 644.885,138.466 645.522,141.379 646.159,141.379 646.796,141.379 647.433,141.379 648.070,141.379 648.707,144.363 649.344,144.363 649.981,144.363 650.618,144.363 651.255,144.363 651.892,147.416 652.529,147.416 653.166,147.416 653.803,147.416 654.440,147.416 655.077,150.539 655.714,150.539 656.351,150.539 656.988,150.539 657.625,150.539 658.262,153.728 658.899,153.728 659.536,153.728 660.173,153.728 660.810,153.728 661.447,156.984 662.084,156.984 662.721,156.984 663.358,156.984 663.995,156.984 664.632,160.305 665.269,160.305 665.906,160.305 666.543,160.305 667.180,160.305 667.817,163.690 668.454,163.690 669.091,163.690 669.728,163.690 670.365,163.690 671.002,167.137 671.639,167.137 672.276,167.137 672.913,167.137 673.550,167.137 674.187,170.645 674.824,170.645 675.461,170.645 676.098,170.645 676.735,170.645 677.372,174.213 678.009,174.213 678.646,174.213 679.283,174.213 679.920,174.213 680.557,177.839 681.194,177.839 681.831,177.839 682.468,177.839 683.105,177.839 683.742,181.523 684.379,181.523 685.016,181.523 685.653,181.523 686.290,181.523 686.927,185.262 687.564,185.262 688.201,185.262 688.838,185.262 689.475,185.262 690.112,189.056 690.749,189.056 691.386,189.056 692.023,189.056 692.660,189.056 693.297,192.902 693.934,192.902 694.571,192.902 695.208,192.902 695.845,192.902 696.482,196.800 697.119,196.800 697.756,196.800 698.393,196.800 699.030,196.800 699.667,200.749 700.304,200.749 700.941,200.749 701.578,200.749 702.215,200.749 702.852,204.717 703.489,204.717 704.126,204.717 704.763,204.717 705.400,204.717 706.037,208.473 706.674,208.473 707.311,208.473 707.948,208.473 708.585,208.473 709.222,212.055 709.859,212.055 710.496,212.055 711.133,212.055 711.770,212.055 712.407,215.497 713.044,215.497 713.681,215.497 714.318,215.497 714.955,215.497 715.592,218.825 716.229,218.825 716.866,218.825 717.503,218.825 718.140,218.825 718.777,222.064 719.414,222.064 720.051,222.064 720.688,222.064 721.325,222.064 721.962,225.235 722.599,225.235 723.236,225.235 723.873,225.235 724.510,225.235 725.147,228.353 725.784,228.353 726.421,228.353 727.058,228.353 727.695,228.353 728.332,231.435 728.969,231.435 729.606,231.435 730.243,231.435 730.880,231.435 731.517,234.490 732.154,234.490 732.791,234.490 733.428,234.490 734.065,234.490 734.702,237.531 735.339,237.531 735.976,237.531 736.613,237.531 737.250,237.531 737.887,240.566 738.524,240.566 739.161,240.566 739.798,240.566 740.435,240.566 741.072,243.602 741.709,243.602 742.346,243.602 742.983,243.602 743.620,243.602 744.257,246.645 744.894,246.645 745.531,246.645 746.168,246.645 746.805,246.645 747.442,249.700 748.079,249.700 748.716,249.700 749.353,249.700 749.990,249.700 750.627,252.772 751.264,252.772 751.901,252.772 752.538,252.772 753.175,252.772 753.812,255.864 754.449,255.864 755.086,255.864 755.723,255.864 756.360,255.864 756.997,258.978 757.634,258.978 758.271,258.978 758.908,258.978 759.545,258.978 760.182,262.117" fill="none" stroke="#dc2626" stroke-width="2"/>
<polyline points="123.818,451.818 124.455,451.818 125.092,451.818 125.729,451.818 126.366,451.818 127.003,451.818 127.640,451.818 128.277,451.818 128.914,451.818 129.551,451.818 130.188,451.818 130.825,451.818 131.462,451.818 132.099,451.818 132.736,451.818 133.373,451.818 134.010,451.818 134.647,451.818 135.284,451.818 135.921,451.818 136.558,451.818 137.195,451.818 137.832,451.818 138.469,451.818 139.106,451.818 139.743,451.818 140.380,451.818 141.017,451.818 141.654,451.818 142.291,451.818 142.928,451.818 143.565,451.818 144.202,451.818 144.839,451.818 145.476,451.818 146.113,451.818 146.750,451.818 147.387,451.818 148.024,451.818 148.661,451.818 149.298,451.818 149.935,451.818 150.572,451.818 151.209,451.818 151.846,451.818 152.483,451.818 153.120,451.818 153.757,451.818 154.394,451.818 155.031,451.818 155.668,451.818 156.305,451.818 156.942,451.818 157.579,451.818 158.216,451.818 158.853,451.818 159.490,451.818 160.127,451.818 160.764,451.818 161.401,451.818 162.038,451.818 162.675,451.818 163.312,451.818 163.949,451.818 164.586,451.818 165.223,451.818 165.860,451.818 166.497,451.818 167.134,451.818 167.771,451.818 168.408,451.818 169.045,451.818 169.682,451.818 170.319,451.818 170.956,451.818 171.593,451.818 172.230,451.818 172.867,451.818 173.504,451.818 174.141,451.818 174.778,451.818 175.415,451.818 176.052,451.818 176.689,451.818 177.326,451.818 177.963,451.818 178.600,451.818 179.237,451.818 179.874,451.818 180.511,451.818 181.148,451.818 181.785,451.818 182.422,451.818 183.059,451.818 183.696,451.818 184.333,451.818 184.970,451.818 185.607,451.818 186.244,451.818 186.881,451.818 187.518,451.818 188.155,451.818 188.792,451.818 189.429,451.818 190.066,451.818 190.703,451.818 191.340,451.818 191.977,451.818 192.614,451.818 193.251,451.818 193.888,451.818 194.525,451.818 195.162,451.818 195.799,451.818 196.436,451.818 197.073,451.818 197.710,451.818 198.347,451.818 198.984,451.818 199.621,451.818 200.258,451.818 200.895,451.818 201.532,451.818 202.169,451.818 202.806,451.818 203.443,451.818 204.080,451.818 204.717,451.818 205.354,451.818 205.991,451.818 206.628,451.818 207.265,451.818 207.902,451.818 208.539,451.818 209.176,451.818 209.813,451.818 210.450,451.818 211.087,451.818 211.724,451.818 212.361,451.818 212.998,451.818 213.635,451.818 214.272,451.818 214.909,451.818 215.546,451.818 216.183,451.818 216.820,451.818 217.457,451.818 218.094,451.818 218.731,451.818 219.368,451.818 220.005,451.818 220.642,451.818 221.279,451.818 221.916,451.818 222.553,451.818 223.190,451.818 223.827,451.818 224.464,451.818 225.101,451.818 225.738,451.818 226.375,451.818 227.012,451.818 227.649,451.818 228.286,451.818 228.923,451.818 229.560,451.818 230.197,451.818 230.834,451.818 231.471,451.818 232.108,451.818 232.745,451.818 233.382,451.818 234.019,451.818 234.656,451.818 235.293,451.818 235.930,451.818 236.567,451.818 237.204,451.818 237.841,451.818 238.478,451.818 239.115,451.818 239.752,451.818 240.389,451.818 241.026,451.818 241.663,451.818 242.300,451.818 242.937,451.818 243.574,451.818 244.211,451.818 244.848,451.818 245.485,451.818 246.122,451.818 246.759,451.818 247.396,451.818 248.033,451.818 248.670,451.818 249.307,451.818 249.944,451.818 250.581,451.818 251.218,451.818 251.855,451.818 252.492,451.818 253.129,451.818 253.766,451.818 254.403,451.818 255.040,451.818 255.677,451.818 256.314,451.818 256.951,451.818 257.588,451.818 258.225,451.818 258.862,451.818 259.499,451.818 260.136,451.818 260.773,451.818 261.410,451.818 262.047,451.818 262.684,451.818 263.321,451.818 263.958,451.818 264.595,451.818 265.232,451.818 265.869,451.818 266.506,451.818 267.143,451.818 267.780,451.818 268.417,451.818 269.054,451.818 269.691,451.818 270.328,451.818 270.965,451.818 271.602,451.818 272.239,451.818 272.876,451.818 273.513,451.818 274.150,451.818 274.787,451.818 275.424,451.818 276.061,451.818 276.698,451.818 277.335,451.818 277.972,451.818 278.609,451.818 279.246,451.818 279.883,451.818 280.520,451.818 281.157,451.818 281.794,451.818 282.431,451.818 283.068,451.818 283.705,451.818 284.342,451.818 284.979,451.818 285.616,451.818 286.253,451.818 286.890,451.818 287.527,451.818 288.164,451.818 288.801,451.818 289.438,451.818 290.075,451.818 290.712,451.818 291.349,451.818 291.986,451.818 292.623,451.818 293.260,451.818 293.897,451.818 294.534,451.818 295.171,451.818 295.808,451.818 296.445,451.818 297.082,451.818 297.719,451.818 298.356,451.818 298.993,451.818 299.630,451.818 300.267,451.818 300.904,451.818 301.541,451.818 302.178,451.818 302.815,451.818 303.452,451.818 304.089,451.818 304.726,451.818 305.363,451.818 306.000,451.818 306.637,451.818 307.274,451.818 307.911,451.818 308.548,451.818 309.185,451.818 309.822,451.818 310.459,451.818 311.096,451.818 311.733,451.818 312.370,451.818 313.007,451.818 313.644,451.818 314.281,451.818 314.918,451.818 315.555,451.818 316.192,451.818 316.829,451.818 317.466,451.818 318.103,451.818 318.740,451.818 319.377,451.818 320.014,451.818 320.651,451.818 321.288,451.818 321.925,451.818 322.562,451.818 323.199,451.818 323.836,451.818 324.473,451.818 325.110,451.818 325.747,451.818 326.384,451.818 327.021,451.818 327.658,451.818 328.295,451.818 328.932,451.818 329.569,451.818 330.206,451.818 330.843,451.818 331.480,451.818 332.117,451.818 332.754,451.818 333.391,451.818 334.028,451.818 334.665,451.818 335.302,451.818 335.939,451.818 336.576,451.818 337.213,451.818 337.850,451.818 338.487,451.818 339.124,451.818 339.761,451.818 340.398,451.818 341.035,451.818 341.672,451.818 342.309,451.818 342.946,451.818 343.583,451.818 344.220,451.818 344.857,451.818 345.494,451.818 346.131,451.818 346.768,451.818 347.405,451.818 348.042,451.818 348.679,451.818 349.316,451.818 349.953,451.818 350.590,451.818 351.227,451.818 351.864,451.818 352.501,451.818 353.138,451.818 353.775,451.818 354.412,451.818 355.049,451.818 355.686,451.818 356.323,451.818 356.960,451.818 357.597,451.818 358.234,451.818 358.871,451.818 359.508,451.818 360.145,451.818 360.782,451.818 361.419,451.818 362.056,451.818 362.693,451.818 363.330,451.818 363.967,451.818 364.604,451.818 365.241,451.818 365.878,451.818 366.515,451.818 367.152,451.818 367.789,451.818 368.426,451.818 369.063,451.818 369.700,451.818 370.337,451.818 370.974,451.818 371.611,451.818 372.248,451.818 372.885,451.818 373.522,451.818 374.159,451.818 374.796,451.818 375.433,451.818 376.070,451.818 376.707,451.818 377.344,451.818 377.981,451.818 378.618,451.818 379.255,451.818 379.892,451.818 380.529,451.818 381.166,110.943 381.803,110.943 382.440,110.943 383.077,110.943 383.714,110.943 384.351,110.943 384.988,110.943 385.625,110.943 386.262,110.943 386.899,110.943 387.536,110.943 388.173,110.943 388.810,110.943 389.447,110.943 390.084,110.943 390.721,110.943 391.358,110.943 391.995,110.943 392.632,110.943 393.269,110.943 393.906,110.943 394.543,110.943 395.180,110.943 395.817,110.943 396.454,110.943 397.091,110.943 397.728,110.943 398.365,110.943 399.002,110.943 399.639,110.943 400.276,110.943 400.913,110.943 401.550,110.943 402.187,110.943 402.824,110.943 403.461,110.943 404.098,110.943 404.735,110.943 405.372,110.943 406.009,110.943 406.646,110.943 407.283,110.943 407.920,110.943 408.557,110.943 409.194,110.943 409.831,110.943 410.468,110.943 411.105,110.943 411.742,110.943 412.379,110.943 413.016,110.943 413.653,110.943 414.290,110.943 414.927,110.943 415.564,110.943 416.201,110.943 416.838,110.943 417.475,110.943 418.112,110.943 418.749,110.943 419.386,110.943 420.023,110.943 420.660,110.943 421.297,110.943 421.934,110.943 422.571,110.943 423.208,110.943 423.845,110.943 424.482,110.943 425.119,110.943 425.756,110.943 426.393,110.943 427.030,110.943 427.667,110.943 428.304,110.943 428.941,110.943 429.578,110.943 430.215,110.943 430.852,110.943 431.489,110.943 432.126,110.943 432.763,110.943 433.400,110.943 434.037,110.943 434.674,110.943 435.311,110.943 435.948,110.943 436.585,110.943 437.222,110.943 437.859,110.943 438.496,110.943 439.133,110.943 439.770,110.943 440.407,110.943 441.044,110.943 441.681,110.943 442.319,110.943 442.956,110.943 443.593,110.943 444.230,110.943 444.867,110.943 445.504,110.943 446.141,110.943 446.778,110.943 447.415,110.943 448.052,110.943 448.689,110.943 449.326,110.943 449.963,110.943 450.600,110.943 451.237,110.943 451.874,110.943 452.511,110.943 453.148,110.943 453.785,110.943 454.422,110.943 455.059,110.943 455.696,110.943 456.333,110.943 456.970,110.943 457.607,110.943 458.244,110.943 458.881,110.943 459.518,110.943 460.155,110.943 460.792,110.943 461.429,110.943 462.066,110.943 462.703,110.943 463.340,110.943 463.977,110.943 464.614,110.943 465.251,110.943 465.888,110.943 466.525,110.943 467.162,110.943 467.799,110.943 468.436,110.943 469.073,110.943 469.710,110.943 470.347,110.943 470.984,110.943 471.621,110.943 472.258,110.943 472.895,110.943 473.532,110.943 474.169,110.943 474.806,110.943 475.443,110.943 476.080,110.943 476.717,110.943 477.354,110.943 477.991,110.943 478.628,110.943 479.265,110.943 479.902,110.943 480.539,110.943 481.176,110.943 481.813,110.943 482.450,110.943 483.087,110.943 483.724,110.943 484.361,110.943 484.998,110.943 485.635,110.943 486.272,110.943 486.909,110.943 487.546,110.943 488.183,110.943 488.820,110.943 489.457,110.943 490.094,110.943 490.731,110.943 491.368,110.943 492.005,110.943 492.642,110.943 493.279,110.943 493.916,110.943 494.553,110.943 495.190,110.943 495.827,110.943 496.464,110.943 497.101,110.943 497.738,110.943 498.375,110.943 499.012,110.943 499.649,110.943 500.286,110.943 500.923,110.943 501.560,110.943 502.197,110.943 502.834,110.943 503.471,110.943 504.108,110.943 504.745,110.943 505.382,110.943 506.019,110.943 506.656,110.943 507.293,110.943 507.930,110.943 508.567,110.943 509.204,110.943 509.841,110.943 510.478,110.943 511.115,110.943 511.752,110.943 512.389,110.943 513.026,110.943 513.663,110.943 514.300,110.943 514.937,110.943 515.574,110.943 516.211,110.943 516.848,110.943 517.485,110.943 518.122,110.943 518.759,110.943 519.396,110.943 520.033,110.943 520.670,110.943 521.307,110.943 521.944,110.943 522.581,110.943 523.218,110.943 523.855,110.943 524.492,110.943 525.129,110.943 525.766,110.943 526.403,110.943 527.040,110.943 527.677,110.943 528.314,110.943 528.951,110.943 529.588,110.943 530.225,110.943 530.862,110.943 531.499,110.943 532.136,110.943 532.773,110.943 533.410,110.943 534.047,110.943 534.684,110.943 535.321,110.943 535.958,110.943 536.595,110.943 537.232,110.943 537.869,110.943 538.506,110.943 539.143,110.943 539.780,110.943 540.417,110.943 541.054,110.943 541.691,110.943 542.328,110.943 542.965,110.943 543.602,110.943 544.239,110.943 544.876,110.943 545.513,110.943 546.150,110.943 546.787,110.943 547.424,110.943 548.061,110.943 548.698,110.943 549.335,110.943 549.972,110.943 550.609,110.943 551.246,110.943 551.883,110.943 552.520,110.943 553.157,110.943 553.794,110.943 554.431,110.943 555.068,110.943 555.705,110.943 556.342,110.943 556.979,110.943 557.616,110.943 558.253,110.943 558.890,110.943 559.527,110.943 560.164,110.943 560.801,110.943 561.438,110.943 562.075,110.943 562.712,110.943 563.349,110.943 563.986,110.943 564.623,110.943 565.260,110.943 565.897,110.943 566.534,110.943 567.171,110.943 567.808,110.943 568.445,110.943 569.082,110.943 569.719,110.943 570.356,110.943 570.993,110.943 571.630,110.943 572.267,110.943 572.904,110.943 573.541,110.943 574.178,110.943 574.815,110.943 575.452,110.943 576.089,110.943 576.726,110.943 577.363,110.943 578.000,110.943 578.637,110.943 579.274,110.943 579.911,110.943 580.548,110.943 581.185,110.943 581.822,110.943 582.459,110.943 583.096,110.943 583.733,110.943 584.370,110.943 585.007,110.943 585.644,110.943 586.281,110.943 586.918,110.943 587.555,110.943 588.192,110.943 588.829,110.943 589.466,110.943 590.103,110.943 590.740,110.943 591.377,110.943 592.014,110.943 592.651,110.943 593.288,110.943 593.925,110.943 594.562,110.943 595.199,110.943 595.836,110.943 596.473,110.943 597.110,110.943 597.747,110.943 598.384,110.943 599.021,110.943 599.658,110.943 600.295,110.943 600.932,110.943 601.569,110.943 602.206,110.943 602.843,110.943 603.480,110.943 604.117,110.943 604.754,110.943 605.391,110.943 606.028,110.943 606.665,110.943 607.302,110.943 607.939,110.943 608.576,110.943 609.213,110.943 609.850,110.943 610.487,110.943 611.124,110.943 611.761,110.943 612.398,110.943 613.035,110.943 613.672,110.943 614.309,110.943 614.946,110.943 615.583,110.943 616.220,110.943 616.857,110.943 617.494,110.943 618.131,110.943 618.768,110.943 619.405,110.943 620.042,110.943 620.679,110.943 621.316,110.943 621.953,110.943 622.590,110.943 623.227,110.943 623.864,110.943 624.501,110.943 625.138,110.943 625.775,110.943 626.412,110.943 627.049,110.943 627.686,110.943 628.323,110.943 628.960,110.943 629.597,110.943 630.234,110.943 630.871,110.943 631.508,110.943 632.145,110.943 632.782,110.943 633.419,110.943 634.056,110.943 634.693,110.943 635.330,110.943 635.967,110.943 636.604,110.943 637.241,110.943 637.878,110.943 638.515,110.943 639.152,110.943 639.789,110.943 640.426,110.943 641.063,110.943 641.700,110.943 642.337,110.943 642.974,110.943 643.611,110.943 644.248,110.943 644.885,110.943 645.522,110.943 646.159,110.943 646.796,110.943 647.433,110.943 648.070,110.943 648.707,110.943 649.344,110.943 649.981,110.943 650.618,110.943 651.255,110.943 651.892,110.943 652.529,110.943 653.166,110.943 653.803,110.943 654.440,110.943 655.077,110.943 655.714,110.943 656.351,110.943 656.988,110.943 657.625,110.943 658.262,110.943 658.899,110.943 659.536,110.943 660.173,110.943 660.810,110.943 661.447,110.943 662.084,110.943 662.721,110.943 663.358,110.943 663.995,110.943 664.632,110.943 665.269,110.943 665.906,110.943 666.543,110.943 667.180,110.943 667.817,110.943 668.454,110.943 669.091,110.943 669.728,110.943 670.365,110.943 671.002,110.943 671.639,110.943 672.276,110.943 672.913,110.943 673.550,110.943 674.187,110.943 674.824,110.943 675.461,110.943 676.098,110.943 676.735,110.943 677.372,110.943 678.009,110.943 678.646,110.943 679.283,110.943 679.920,110.943 680.557,110.943 681.194,110.943 681.831,110.943 682.468,110.943 683.105,110.943 683.742,110.943 684.379,110.943 685.016,110.943 685.653,110.943 686.290,110.943 686.927,110.943 687.564,110.943 688.201,110.943 688.838,110.943 689.475,110.943 690.112,110.943 690.749,110.943 691.386,110.943 692.023,110.943 692.660,110.943 693.297,110.943 693.934,110.943 694.571,110.943 695.208,110.943 695.845,110.943 696.482,110.943 697.119,110.943 697.756,110.943 698.393,110.943 699.030,110.943 699.667,110.943 700.304,110.943 700.941,110.943 701.578,110.943 702.215,110.943 702.852,110.943 703.489,110.943 704.126,110.943 704.763,110.943 705.400,110.943 706.037,110.943 706.674,110.943 707.311,110.943 707.948,110.943 708.585,110.943 709.222,110.943 709.859,110.943 710.496,110.943 711.133,110.943 711.770,110.943 712.407,110.943 713.044,110.943 713.681,110.943 714.318,110.943 714.955,110.943 715.592,110.943 716.229,110.943 716.866,110.943 717.503,110.943 718.140,110.943 718.777,110.943 719.414,110.943 720.051,110.943 720.688,110.943 721.325,110.943 721.962,110.943 722.599,110.943 723.236,110.943 723.873,110.943 724.510,110.943 725.147,110.943 725.784,110.943 726.421,110.943 727.058,110.943 727.695,110.943 728.332,110.943 728.969,110.943 729.606,110.943 730.243,110.943 730.880,110.943 731.517,110.943 732.154,110.943 732.791,110.943 733.428,110.943 734.065,110.943 734.702,110.943 735.339,110.943 735.976,110.943 736.613,110.943 737.250,110.943 737.887,110.943 738.524,110.943 739.161,110.943 739.798,110.943 740.435,110.943 741.072,110.943 741.709,110.943 742.346,110.943 742.983,110.943 743.620,110.943 744.257,110.943 744.894,110.943 745.531,110.943 746.168,110.943 746.805,110.943 747.442,110.943 748.079,110.943 748.716,110.943 749.353,110.943 749.990,110.943 750.627,110.943 751.264,110.943 751.901,110.943 752.538,110.943 753.175,110.943 753.812,110.943 754.449,110.943 755.086,110.943 755.723,110.943 756.360,110.943 756.997,110.943 757.634,110.943 758.271,110.943 758.908,110.943 759.545,110.943 760.182,110.943" fill="none" stroke="#059669" stroke-width="2"/>
<text x="442.0" y="535" text-anchor="middle" font-family="sans-serif" font-size="14" fill="#334155">time (s)</text>
<text x="24" y="270.0" text-anchor="middle" transform="rotate(-90 24 270.0)" font-family="sans-serif" font-size="14" fill="#334155">declared SI value</text>
<line x1="816.0" y1="90.0" x2="836.0" y2="90.0" stroke="#2563eb" stroke-width="3"/>
<text x="844.0" y="94.0" font-family="sans-serif" font-size="12" fill="#334155">rms_value</text>
<line x1="816.0" y1="110.0" x2="836.0" y2="110.0" stroke="#dc2626" stroke-width="3"/>
<text x="844.0" y="114.0" font-family="sans-serif" font-size="12" fill="#334155">phasor_magnitude</text>
<line x1="816.0" y1="130.0" x2="836.0" y2="130.0" stroke="#059669" stroke-width="3"/>
<text x="844.0" y="134.0" font-family="sans-serif" font-size="12" fill="#334155">valid</text>
</svg>
