<svg xmlns="http://www.w3.org/2000/svg" width="960" height="560" viewBox="0 0 960 560">
<rect width="960" height="560" fill="#ffffff"/>
<text x="480" y="34" text-anchor="middle" font-family="sans-serif" font-size="22" fill="#111827">IEEE 13-Node-Style Feeder Voltages</text>
<rect x="92.0" y="70.0" width="700.0" height="400.0" fill="#f8fafc" stroke="#cbd5e1"/>
<line x1="92.0" y1="70.0" x2="792.0" y2="70.0" stroke="#e2e8f0"/>
<text x="82.0" y="74.0" text-anchor="end" font-family="monospace" font-size="12" fill="#475569">1.006</text>
<line x1="92.0" y1="170.0" x2="792.0" y2="170.0" stroke="#e2e8f0"/>
<text x="82.0" y="174.0" text-anchor="end" font-family="monospace" font-size="12" fill="#475569">0.9709</text>
<line x1="92.0" y1="270.0" x2="792.0" y2="270.0" stroke="#e2e8f0"/>
<text x="82.0" y="274.0" text-anchor="end" font-family="monospace" font-size="12" fill="#475569">0.9352</text>
<line x1="92.0" y1="370.0" x2="792.0" y2="370.0" stroke="#e2e8f0"/>
<text x="82.0" y="374.0" text-anchor="end" font-family="monospace" font-size="12" fill="#475569">0.8996</text>
<line x1="92.0" y1="470.0" x2="792.0" y2="470.0" stroke="#e2e8f0"/>
<text x="82.0" y="474.0" text-anchor="end" font-family="monospace" font-size="12" fill="#475569">0.864</text>
<line x1="92.0" y1="70.0" x2="92.0" y2="470.0" stroke="#e2e8f0"/>
<text x="92.0" y="492.0" text-anchor="middle" font-family="monospace" font-size="12" fill="#475569">-5e-06</text>
<line x1="267.0" y1="70.0" x2="267.0" y2="470.0" stroke="#e2e8f0"/>
<text x="267.0" y="492.0" text-anchor="middle" font-family="monospace" font-size="12" fill="#475569">2.25e-05</text>
<line x1="442.0" y1="70.0" x2="442.0" y2="470.0" stroke="#e2e8f0"/>
<text x="442.0" y="492.0" text-anchor="middle" font-family="monospace" font-size="12" fill="#475569">5e-05</text>
<line x1="617.0" y1="70.0" x2="617.0" y2="470.0" stroke="#e2e8f0"/>
<text x="617.0" y="492.0" text-anchor="middle" font-family="monospace" font-size="12" fill="#475569">7.75e-05</text>
<line x1="792.0" y1="70.0" x2="792.0" y2="470.0" stroke="#e2e8f0"/>
<text x="792.0" y="492.0" text-anchor="middle" font-family="monospace" font-size="12" fill="#475569">0.000105</text>
<polyline points="123.818,88.182 251.091,88.182 378.364,88.182 505.636,88.182 632.909,88.182 760.182,88.182" fill="none" stroke="#2563eb" stroke-width="2"/>
<polyline points="123.818,268.587 251.091,232.291 378.364,239.536 505.636,206.991 632.909,214.754 760.182,185.500" fill="none" stroke="#dc2626" stroke-width="2"/>
<polyline points="123.818,451.818 251.091,367.360 378.364,422.887 505.636,344.813 632.909,398.051 760.182,325.754" fill="none" stroke="#059669" stroke-width="2"/>
<text x="442.0" y="535" text-anchor="middle" font-family="sans-serif" font-size="14" fill="#334155">time (s)</text>
<text x="24" y="270.0" text-anchor="middle" transform="rotate(-90 24 270.0)" font-family="sans-serif" font-size="14" fill="#334155">voltage (pu)</text>
<line x1="816.0" y1="90.0" x2="836.0" y2="90.0" stroke="#2563eb" stroke-width="3"/>
<text x="844.0" y="94.0" font-family="sans-serif" font-size="12" fill="#334155">650</text>
<line x1="816.0" y1="110.0" x2="836.0" y2="110.0" stroke="#dc2626" stroke-width="3"/>
<text x="844.0" y="114.0" font-family="sans-serif" font-size="12" fill="#334155">632</text>
<line x1="816.0" y1="130.0" x2="836.0" y2="130.0" stroke="#059669" stroke-width="3"/>
<text x="844.0" y="134.0" font-family="sans-serif" font-size="12" fill="#334155">675</text>
</svg>
