<svg xmlns="http://www.w3.org/2000/svg" width="960" height="560" viewBox="0 0 960 560">
<rect width="960" height="560" fill="#ffffff"/>
<text x="480" y="34" text-anchor="middle" font-family="sans-serif" font-size="22" fill="#111827">Universal Machine Type5</text>
<rect x="92.0" y="70.0" width="700.0" height="400.0" fill="#f8fafc" stroke="#cbd5e1"/>
<line x1="92.0" y1="70.0" x2="792.0" y2="70.0" stroke="#e2e8f0"/>
<text x="82.0" y="74.0" text-anchor="end" font-family="monospace" font-size="12" fill="#475569">523.8</text>
<line x1="92.0" y1="170.0" x2="792.0" y2="170.0" stroke="#e2e8f0"/>
<text x="82.0" y="174.0" text-anchor="end" font-family="monospace" font-size="12" fill="#475569">-287.9</text>
<line x1="92.0" y1="270.0" x2="792.0" y2="270.0" stroke="#e2e8f0"/>
<text x="82.0" y="274.0" text-anchor="end" font-family="monospace" font-size="12" fill="#475569">-1100</text>
<line x1="92.0" y1="370.0" x2="792.0" y2="370.0" stroke="#e2e8f0"/>
<text x="82.0" y="374.0" text-anchor="end" font-family="monospace" font-size="12" fill="#475569">-1912</text>
<line x1="92.0" y1="470.0" x2="792.0" y2="470.0" stroke="#e2e8f0"/>
<text x="82.0" y="474.0" text-anchor="end" font-family="monospace" font-size="12" fill="#475569">-2723</text>
<line x1="92.0" y1="70.0" x2="92.0" y2="470.0" stroke="#e2e8f0"/>
<text x="92.0" y="492.0" text-anchor="middle" font-family="monospace" font-size="12" fill="#475569">-0.005</text>
<line x1="267.0" y1="70.0" x2="267.0" y2="470.0" stroke="#e2e8f0"/>
<text x="267.0" y="492.0" text-anchor="middle" font-family="monospace" font-size="12" fill="#475569">0.0225</text>
<line x1="442.0" y1="70.0" x2="442.0" y2="470.0" stroke="#e2e8f0"/>
<text x="442.0" y="492.0" text-anchor="middle" font-family="monospace" font-size="12" fill="#475569">0.05</text>
<line x1="617.0" y1="70.0" x2="617.0" y2="470.0" stroke="#e2e8f0"/>
<text x="617.0" y="492.0" text-anchor="middle" font-family="monospace" font-size="12" fill="#475569">0.0775</text>
<line x1="792.0" y1="70.0" x2="792.0" y2="470.0" stroke="#e2e8f0"/>
<text x="792.0" y="492.0" text-anchor="middle" font-family="monospace" font-size="12" fill="#475569">0.105</text>
<polyline points="123.818,134.530 125.091,134.530 126.364,134.530 127.636,134.530 128.909,134.530 130.182,134.530 131.455,134.530 132.727,134.530 134.000,134.530 135.273,134.530 136.545,134.530 137.818,134.530 139.091,134.530 140.364,134.530 141.636,134.530 142.909,134.530 144.182,134.530 145.455,134.530 146.727,134.530 148.000,134.530 149.273,134.530 150.545,134.530 151.818,134.530 153.091,134.530 154.364,134.530 155.636,134.530 156.909,134.530 158.182,134.530 159.455,134.530 160.727,134.530 162.000,134.530 163.273,134.530 164.545,134.530 165.818,134.530 167.091,134.530 168.364,134.530 169.636,134.530 170.909,134.530 172.182,134.530 173.455,134.530 174.727,134.530 176.000,134.530 177.273,134.530 178.545,134.530 179.818,134.530 181.091,134.530 182.364,134.530 183.636,134.530 184.909,134.530 186.182,134.530 187.455,134.530 188.727,134.530 190.000,134.530 191.273,134.530 192.545,134.530 193.818,134.530 195.091,134.530 196.364,134.530 197.636,134.530 198.909,134.530 200.182,134.530 201.455,134.530 202.727,134.530 204.000,134.530 205.273,134.530 206.545,134.530 207.818,134.530 209.091,134.530 210.364,134.530 211.636,134.530 212.909,134.530 214.182,134.530 215.455,134.530 216.727,134.530 218.000,134.530 219.273,134.530 220.545,134.530 221.818,134.530 223.091,134.530 224.364,134.530 225.636,134.530 226.909,134.530 228.182,134.530 229.455,134.530 230.727,134.530 232.000,134.530 233.273,134.530 234.545,134.530 235.818,134.530 237.091,134.530 238.364,134.530 239.636,134.530 240.909,134.530 242.182,134.530 243.455,134.530 244.727,134.530 246.000,134.530 247.273,134.530 248.545,134.530 249.818,134.530 251.091,134.530 252.364,134.530 253.636,134.530 254.909,134.530 256.182,134.530 257.455,134.530 258.727,134.530 260.000,134.530 261.273,134.530 262.545,134.530 263.818,134.530 265.091,134.530 266.364,134.530 267.636,134.530 268.909,134.530 270.182,134.530 271.455,134.530 272.727,134.530 274.000,134.530 275.273,134.530 276.545,134.530 277.818,134.530 279.091,134.530 280.364,134.530 281.636,134.530 282.909,134.530 284.182,134.530 285.455,134.530 286.727,134.530 288.000,134.530 289.273,134.530 290.545,134.530 291.818,134.530 293.091,134.530 294.364,134.530 295.636,134.530 296.909,134.530 298.182,134.530 299.455,134.530 300.727,134.530 302.000,134.530 303.273,134.530 304.545,134.530 305.818,134.530 307.091,134.530 308.364,134.530 309.636,134.530 310.909,134.530 312.182,134.530 313.455,134.530 314.727,134.530 316.000,134.530 317.273,134.530 318.545,134.530 319.818,134.530 321.091,134.530 322.364,134.530 323.636,134.530 324.909,134.530 326.182,134.530 327.455,134.530 328.727,134.530 330.000,134.530 331.273,134.530 332.545,134.530 333.818,134.530 335.091,134.530 336.364,134.530 337.636,134.530 338.909,134.530 340.182,134.530 341.455,134.530 342.727,134.530 344.000,134.530 345.273,134.530 346.545,134.530 347.818,134.530 349.091,134.530 350.364,134.530 351.636,134.530 352.909,134.530 354.182,134.530 355.455,134.530 356.727,134.530 358.000,134.530 359.273,134.530 360.545,134.530 361.818,134.530 363.091,134.530 364.364,134.530 365.636,134.530 366.909,134.530 368.182,134.530 369.455,134.530 370.727,134.530 372.000,134.530 373.273,134.530 374.545,134.530 375.818,134.530 377.091,134.530 378.364,134.530 379.636,134.530 380.909,134.530 382.182,134.530 383.455,134.530 384.727,134.530 386.000,134.530 387.273,134.530 388.545,134.530 389.818,134.530 391.091,134.530 392.364,134.530 393.636,134.530 394.909,134.530 396.182,134.530 397.455,134.530 398.727,134.530 400.000,134.530 401.273,134.530 402.545,134.530 403.818,134.530 405.091,134.530 406.364,134.530 407.636,134.530 408.909,134.530 410.182,134.530 411.455,134.530 412.727,134.530 414.000,134.530 415.273,134.530 416.545,134.530 417.818,134.530 419.091,134.530 420.364,134.530 421.636,134.530 422.909,134.530 424.182,134.530 425.455,134.530 426.727,134.530 428.000,134.530 429.273,134.530 430.545,134.530 431.818,134.530 433.091,134.530 434.364,134.530 435.636,134.530 436.909,134.530 438.182,134.530 439.455,134.530 440.727,134.530 442.000,134.530 443.273,134.530 444.545,134.530 445.818,134.530 447.091,134.530 448.364,134.530 449.636,134.530 450.909,134.530 452.182,134.530 453.455,134.530 454.727,134.530 456.000,134.530 457.273,134.530 458.545,134.530 459.818,134.530 461.091,134.530 462.364,134.530 463.636,134.530 464.909,134.530 466.182,134.530 467.455,134.530 468.727,134.530 470.000,134.530 471.273,134.530 472.545,134.530 473.818,134.530 475.091,134.530 476.364,134.530 477.636,134.530 478.909,134.530 480.182,134.530 481.455,134.530 482.727,134.530 484.000,134.530 485.273,134.530 486.545,134.530 487.818,134.530 489.091,134.530 490.364,134.530 491.636,134.530 492.909,134.530 494.182,134.530 495.455,134.530 496.727,134.530 498.000,134.530 499.273,134.530 500.545,134.530 501.818,134.530 503.091,134.530 504.364,134.530 505.636,134.530 506.909,134.530 508.182,134.530 509.455,134.530 510.727,134.530 512.000,134.530 513.273,134.530 514.545,134.530 515.818,134.530 517.091,134.530 518.364,134.530 519.636,134.530 520.909,134.530 522.182,134.530 523.455,134.530 524.727,134.530 526.000,134.530 527.273,134.530 528.545,134.530 529.818,134.530 531.091,134.530 532.364,134.530 533.636,134.530 534.909,134.530 536.182,134.530 537.455,134.530 538.727,134.530 540.000,134.530 541.273,134.530 542.545,134.530 543.818,134.530 545.091,134.530 546.364,134.530 547.636,134.530 548.909,134.530 550.182,134.530 551.455,134.530 552.727,134.530 554.000,134.530 555.273,134.530 556.545,134.530 557.818,134.530 559.091,134.530 560.364,134.530 561.636,134.530 562.909,134.530 564.182,134.530 565.455,134.530 566.727,134.530 568.000,134.530 569.273,134.530 570.545,134.530 571.818,134.530 573.091,134.530 574.364,134.530 575.636,134.530 576.909,134.530 578.182,134.530 579.455,134.530 580.727,134.530 582.000,134.530 583.273,134.530 584.545,134.530 585.818,134.530 587.091,134.530 588.364,134.530 589.636,134.530 590.909,134.530 592.182,134.530 593.455,134.530 594.727,134.530 596.000,134.530 597.273,134.530 598.545,134.530 599.818,134.530 601.091,134.530 602.364,134.530 603.636,134.530 604.909,134.530 606.182,134.530 607.455,134.530 608.727,134.530 610.000,134.530 611.273,134.530 612.545,134.530 613.818,134.530 615.091,134.530 616.364,134.530 617.636,134.530 618.909,134.530 620.182,134.530 621.455,134.530 622.727,134.530 624.000,134.530 625.273,134.530 626.545,134.530 627.818,134.530 629.091,134.530 630.364,134.530 631.636,134.530 632.909,134.530 634.182,134.530 635.455,134.530 636.727,134.530 638.000,134.530 639.273,134.530 640.545,134.530 641.818,134.530 643.091,134.530 644.364,134.530 645.636,134.530 646.909,134.530 648.182,134.530 649.455,134.530 650.727,134.530 652.000,134.530 653.273,134.530 654.545,134.530 655.818,134.530 657.091,134.530 658.364,134.530 659.636,134.530 660.909,134.530 662.182,134.530 663.455,134.530 664.727,134.530 666.000,134.530 667.273,134.530 668.545,134.530 669.818,134.530 671.091,134.530 672.364,134.530 673.636,134.530 674.909,134.530 676.182,134.530 677.455,134.530 678.727,134.530 680.000,134.530 681.273,134.530 682.545,134.530 683.818,134.530 685.091,134.530 686.364,134.530 687.636,134.530 688.909,134.530 690.182,134.530 691.455,134.530 692.727,134.530 694.000,134.530 695.273,134.530 696.545,134.530 697.818,134.530 699.091,134.530 700.364,134.530 701.636,134.530 702.909,134.530 704.182,134.530 705.455,134.530 706.727,134.530 708.000,134.530 709.273,134.530 710.545,134.530 711.818,134.530 713.091,134.530 714.364,134.530 715.636,134.530 716.909,134.530 718.182,134.530 719.455,134.530 720.727,134.530 722.000,134.530 723.273,134.530 724.545,134.530 725.818,134.530 727.091,134.530 728.364,134.530 729.636,134.530 730.909,134.530 732.182,134.530 733.455,134.530 734.727,134.530 736.000,134.530 737.273,134.530 738.545,134.530 739.818,134.530 741.091,134.530 742.364,134.530 743.636,134.530 744.909,134.530 746.182,134.530 747.455,134.530 748.727,134.530 750.000,134.530 751.273,134.530 752.545,134.530 753.818,134.530 755.091,134.530 756.364,134.530 757.636,134.530 758.909,134.530 760.182,134.530" fill="none" stroke="#2563eb" stroke-width="2"/>
<polyline points="123.818,109.512 125.091,109.512 126.364,109.512 127.636,109.512 128.909,109.512 130.182,109.512 131.455,109.512 132.727,109.512 134.000,109.512 135.273,109.512 136.545,109.512 137.818,109.512 139.091,109.512 140.364,109.512 141.636,109.512 142.909,109.512 144.182,109.512 145.455,109.512 146.727,109.512 148.000,109.512 149.273,109.512 150.545,109.512 151.818,109.512 153.091,109.512 154.364,109.512 155.636,109.512 156.909,109.512 158.182,109.512 159.455,109.512 160.727,109.512 162.000,109.512 163.273,109.512 164.545,109.512 165.818,109.512 167.091,109.512 168.364,109.512 169.636,109.512 170.909,109.512 172.182,109.512 173.455,109.512 174.727,109.512 176.000,109.512 177.273,109.512 178.545,109.512 179.818,109.512 181.091,109.512 182.364,109.512 183.636,109.512 184.909,109.512 186.182,109.512 187.455,109.512 188.727,109.512 190.000,109.512 191.273,109.512 192.545,109.512 193.818,109.512 195.091,109.512 196.364,109.512 197.636,109.512 198.909,109.512 200.182,109.512 201.455,109.512 202.727,109.512 204.000,109.512 205.273,109.512 206.545,109.512 207.818,109.512 209.091,109.512 210.364,109.512 211.636,109.512 212.909,109.512 214.182,109.512 215.455,109.512 216.727,109.512 218.000,109.512 219.273,109.512 220.545,109.512 221.818,109.512 223.091,109.512 224.364,109.512 225.636,109.512 226.909,109.512 228.182,109.512 229.455,109.512 230.727,109.512 232.000,109.512 233.273,109.512 234.545,109.512 235.818,109.512 237.091,109.512 238.364,109.512 239.636,109.512 240.909,109.512 242.182,109.512 243.455,109.512 244.727,109.512 246.000,109.512 247.273,109.512 248.545,109.512 249.818,109.512 251.091,109.512 252.364,109.512 253.636,109.512 254.909,109.512 256.182,109.512 257.455,109.512 258.727,109.512 260.000,109.512 261.273,109.512 262.545,109.512 263.818,109.512 265.091,109.512 266.364,109.512 267.636,109.512 268.909,109.512 270.182,109.512 271.455,109.512 272.727,109.512 274.000,109.512 275.273,109.512 276.545,109.512 277.818,109.512 279.091,109.512 280.364,109.512 281.636,109.512 282.909,109.512 284.182,109.512 285.455,109.512 286.727,109.512 288.000,109.512 289.273,109.512 290.545,109.512 291.818,109.512 293.091,109.512 294.364,109.512 295.636,109.512 296.909,109.512 298.182,109.512 299.455,109.512 300.727,109.512 302.000,109.512 303.273,109.512 304.545,109.512 305.818,109.512 307.091,109.512 308.364,109.512 309.636,109.512 310.909,109.512 312.182,109.512 313.455,109.512 314.727,109.512 316.000,109.512 317.273,109.512 318.545,109.512 319.818,109.512 321.091,109.512 322.364,109.512 323.636,109.512 324.909,109.512 326.182,109.512 327.455,109.512 328.727,109.512 330.000,109.512 331.273,109.512 332.545,109.512 333.818,109.512 335.091,109.512 336.364,109.512 337.636,109.512 338.909,109.512 340.182,109.512 341.455,109.512 342.727,109.512 344.000,109.512 345.273,109.512 346.545,109.512 347.818,109.512 349.091,109.512 350.364,109.512 351.636,109.512 352.909,109.512 354.182,109.512 355.455,109.512 356.727,109.512 358.000,109.512 359.273,109.512 360.545,109.512 361.818,109.512 363.091,109.512 364.364,109.512 365.636,109.512 366.909,109.512 368.182,109.512 369.455,109.512 370.727,109.512 372.000,109.512 373.273,109.512 374.545,109.512 375.818,109.512 377.091,109.512 378.364,109.512 379.636,109.512 380.909,109.512 382.182,109.512 383.455,109.512 384.727,109.512 386.000,109.512 387.273,109.512 388.545,109.512 389.818,109.512 391.091,109.512 392.364,109.512 393.636,109.512 394.909,109.512 396.182,109.512 397.455,109.512 398.727,109.512 400.000,109.512 401.273,109.512 402.545,109.512 403.818,109.512 405.091,109.512 406.364,109.512 407.636,109.512 408.909,109.512 410.182,109.512 411.455,109.512 412.727,109.512 414.000,109.512 415.273,109.512 416.545,109.512 417.818,109.512 419.091,109.512 420.364,109.512 421.636,109.512 422.909,109.512 424.182,109.512 425.455,109.512 426.727,109.512 428.000,109.512 429.273,109.512 430.545,109.512 431.818,109.512 433.091,109.512 434.364,109.512 435.636,109.512 436.909,109.512 438.182,109.512 439.455,109.512 440.727,109.512 442.000,109.512 443.273,109.512 444.545,109.512 445.818,109.512 447.091,109.512 448.364,109.512 449.636,109.512 450.909,109.512 452.182,109.512 453.455,109.512 454.727,109.512 456.000,109.512 457.273,109.512 458.545,109.512 459.818,109.512 461.091,109.512 462.364,109.512 463.636,109.512 464.909,109.512 466.182,109.512 467.455,109.512 468.727,109.512 470.000,109.512 471.273,109.512 472.545,109.512 473.818,109.512 475.091,109.512 476.364,109.512 477.636,109.512 478.909,109.512 480.182,109.512 481.455,109.512 482.727,109.512 484.000,109.512 485.273,109.512 486.545,109.512 487.818,109.512 489.091,109.512 490.364,109.512 491.636,109.512 492.909,109.512 494.182,109.512 495.455,109.512 496.727,109.512 498.000,109.512 499.273,109.512 500.545,109.512 501.818,109.512 503.091,109.512 504.364,109.512 505.636,109.512 506.909,109.512 508.182,109.512 509.455,109.512 510.727,109.512 512.000,109.512 513.273,109.512 514.545,109.512 515.818,109.512 517.091,109.512 518.364,109.512 519.636,109.512 520.909,109.512 522.182,109.512 523.455,109.512 524.727,109.512 526.000,109.512 527.273,109.512 528.545,109.512 529.818,109.512 531.091,109.512 532.364,109.512 533.636,109.512 534.909,109.512 536.182,109.512 537.455,109.512 538.727,109.512 540.000,109.512 541.273,109.512 542.545,109.512 543.818,109.512 545.091,109.512 546.364,109.512 547.636,109.512 548.909,109.512 550.182,109.512 551.455,109.512 552.727,109.512 554.000,109.512 555.273,109.512 556.545,109.512 557.818,109.512 559.091,109.512 560.364,109.512 561.636,109.512 562.909,109.512 564.182,109.512 565.455,109.512 566.727,109.512 568.000,109.512 569.273,109.512 570.545,109.512 571.818,109.512 573.091,109.512 574.364,109.512 575.636,109.512 576.909,109.512 578.182,109.512 579.455,109.512 580.727,109.512 582.000,109.512 583.273,109.512 584.545,109.512 585.818,109.512 587.091,109.512 588.364,109.512 589.636,109.512 590.909,109.512 592.182,109.512 593.455,109.512 594.727,109.512 596.000,109.512 597.273,109.512 598.545,109.512 599.818,109.512 601.091,109.512 602.364,109.512 603.636,109.512 604.909,109.512 606.182,109.512 607.455,109.512 608.727,109.512 610.000,109.512 611.273,109.512 612.545,109.512 613.818,109.512 615.091,109.512 616.364,109.512 617.636,109.512 618.909,109.512 620.182,109.512 621.455,109.512 622.727,109.512 624.000,109.512 625.273,109.512 626.545,109.512 627.818,109.512 629.091,109.512 630.364,109.512 631.636,109.512 632.909,109.512 634.182,109.512 635.455,109.512 636.727,109.512 638.000,109.512 639.273,109.512 640.545,109.512 641.818,109.512 643.091,109.512 644.364,109.512 645.636,109.512 646.909,109.512 648.182,109.512 649.455,109.512 650.727,109.512 652.000,109.512 653.273,109.512 654.545,109.512 655.818,109.512 657.091,109.512 658.364,109.512 659.636,109.512 660.909,109.512 662.182,109.512 663.455,109.512 664.727,109.512 666.000,109.512 667.273,109.512 668.545,109.512 669.818,109.512 671.091,109.512 672.364,109.512 673.636,109.512 674.909,109.512 676.182,109.512 677.455,109.512 678.727,109.512 680.000,109.512 681.273,109.512 682.545,109.512 683.818,109.512 685.091,109.512 686.364,109.512 687.636,109.512 688.909,109.512 690.182,109.512 691.455,109.512 692.727,109.512 694.000,109.512 695.273,109.512 696.545,109.512 697.818,109.512 699.091,109.512 700.364,109.512 701.636,109.512 702.909,109.512 704.182,109.512 705.455,109.512 706.727,109.512 708.000,109.512 709.273,109.512 710.545,109.512 711.818,109.512 713.091,109.512 714.364,109.512 715.636,109.512 716.909,109.512 718.182,109.512 719.455,109.512 720.727,109.512 722.000,109.512 723.273,109.512 724.545,109.512 725.818,109.512 727.091,109.512 728.364,109.512 729.636,109.512 730.909,109.512 732.182,109.512 733.455,109.512 734.727,109.512 736.000,109.512 737.273,109.512 738.545,109.512 739.818,109.512 741.091,109.512 742.364,109.512 743.636,109.512 744.909,109.512 746.182,109.512 747.455,109.512 748.727,109.512 750.000,109.512 751.273,109.512 752.545,109.512 753.818,109.512 755.091,109.512 756.364,109.512 757.636,109.512 758.909,109.512 760.182,109.512" fill="none" stroke="#dc2626" stroke-width="2"/>
<polyline points="123.818,134.530 125.091,134.536 126.364,134.544 127.636,134.552 128.909,134.561 130.182,134.571 131.455,134.580 132.727,134.591 134.000,134.601 135.273,134.612 136.545,134.623 137.818,134.635 139.091,134.646 140.364,134.657 141.636,134.669 142.909,134.680 144.182,134.691 145.455,134.702 146.727,134.712 148.000,134.722 149.273,134.732 150.545,134.741 151.818,134.750 153.091,134.758 154.364,134.766 155.636,134.773 156.909,134.779 158.182,134.784 159.455,134.789 160.727,134.793 162.000,134.797 163.273,134.799 164.545,134.801 165.818,134.802 167.091,134.803 168.364,134.802 169.636,134.801 170.909,134.799 172.182,134.796 173.455,134.793 174.727,134.789 176.000,134.784 177.273,134.779 178.545,134.773 179.818,134.767 181.091,134.760 182.364,134.753 183.636,134.745 184.909,134.737 186.182,134.729 187.455,134.721 188.727,134.712 190.000,134.703 191.273,134.694 192.545,134.685 193.818,134.676 195.091,134.667 196.364,134.658 197.636,134.650 198.909,134.641 200.182,134.633 201.455,134.625 202.727,134.617 204.000,134.610 205.273,134.603 206.545,134.597 207.818,134.591 209.091,134.585 210.364,134.580 211.636,134.576 212.909,134.572 214.182,134.568 215.455,134.566 216.727,134.563 218.000,134.562 219.273,134.561 220.545,134.560 221.818,134.560 223.091,134.561 224.364,134.562 225.636,134.564 226.909,134.566 228.182,134.569 229.455,134.573 230.727,134.576 232.000,134.580 233.273,134.585 234.545,134.590 235.818,134.595 237.091,134.601 238.364,134.606 239.636,134.612 240.909,134.618 242.182,134.625 243.455,134.631 244.727,134.638 246.000,134.644 247.273,134.651 248.545,134.657 249.818,134.663 251.091,134.670 252.364,134.676 253.636,134.681 254.909,134.687 256.182,134.693 257.455,134.698 258.727,134.702 260.000,134.707 261.273,134.711 262.545,134.715 263.818,134.718 265.091,134.721 266.364,134.724 267.636,134.726 268.909,134.728 270.182,134.729 271.455,134.730 272.727,134.730 274.000,134.730 275.273,134.730 276.545,134.729 277.818,134.727 279.091,134.726 280.364,134.723 281.636,134.721 282.909,134.718 284.182,134.715 285.455,134.711 286.727,134.708 288.000,134.704 289.273,134.699 290.545,134.695 291.818,134.690 293.091,134.685 294.364,134.681 295.636,134.675 296.909,134.670 298.182,134.665 299.455,134.660 300.727,134.655 302.000,134.650 303.273,134.645 304.545,134.640 305.818,134.635 307.091,134.630 308.364,134.626 309.636,134.622 310.909,134.618 312.182,134.614 313.455,134.610 314.727,134.607 316.000,134.604 317.273,134.601 318.545,134.599 319.818,134.597 321.091,134.595 322.364,134.594 323.636,134.592 324.909,134.592 326.182,134.591 327.455,134.591 328.727,134.591 330.000,134.592 331.273,134.593 332.545,134.594 333.818,134.595 335.091,134.597 336.364,134.599 337.636,134.601 338.909,134.604 340.182,134.607 341.455,134.610 342.727,134.613 344.000,134.616 345.273,134.619 346.545,134.623 347.818,134.626 349.091,134.630 350.364,134.634 351.636,134.637 352.909,134.641 354.182,134.645 355.455,134.648 356.727,134.652 358.000,134.655 359.273,134.659 360.545,134.662 361.818,134.665 363.091,134.668 364.364,134.671 365.636,134.674 366.909,134.676 368.182,134.679 369.455,134.681 370.727,134.682 372.000,134.684 373.273,134.685 374.545,134.686 375.818,134.687 377.091,134.688 378.364,134.688 379.636,134.688 380.909,134.688 382.182,134.688 383.455,134.687 384.727,134.686 386.000,134.685 387.273,134.684 388.545,134.682 389.818,134.681 391.091,134.679 392.364,134.677 393.636,134.674 394.909,134.672 396.182,134.670 397.455,134.667 398.727,134.664 400.000,134.661 401.273,134.659 402.545,134.656 403.818,134.653 405.091,134.650 406.364,134.647 407.636,134.644 408.909,134.641 410.182,134.638 411.455,134.636 412.727,134.633 414.000,134.630 415.273,134.628 416.545,134.625 417.818,134.623 419.091,134.621 420.364,134.619 421.636,134.617 422.909,134.616 424.182,134.614 425.455,134.613 426.727,134.612 428.000,134.611 429.273,134.610 430.545,134.610 431.818,134.609 433.091,134.609 434.364,134.609 435.636,134.609 436.909,134.610 438.182,134.610 439.455,134.611 440.727,134.612 442.000,134.613 443.273,134.614 444.545,134.616 445.818,134.617 447.091,134.619 448.364,134.621 449.636,134.623 450.909,134.624 452.182,134.626 453.455,134.628 454.727,134.630 456.000,134.633 457.273,134.635 458.545,134.637 459.818,134.639 461.091,134.641 462.364,134.643 463.636,134.645 464.909,134.647 466.182,134.649 467.455,134.651 468.727,134.653 470.000,134.655 471.273,134.656 472.545,134.658 473.818,134.659 475.091,134.660 476.364,134.661 477.636,134.662 478.909,134.663 480.182,134.664 481.455,134.664 482.727,134.665 484.000,134.665 485.273,134.665 486.545,134.665 487.818,134.665 489.091,134.665 490.364,134.664 491.636,134.664 492.909,134.663 494.182,134.662 495.455,134.662 496.727,134.660 498.000,134.659 499.273,134.658 500.545,134.657 501.818,134.655 503.091,134.654 504.364,134.652 505.636,134.651 506.909,134.649 508.182,134.648 509.455,134.646 510.727,134.644 512.000,134.643 513.273,134.641 514.545,134.639 515.818,134.638 517.091,134.636 518.364,134.635 519.636,134.633 520.909,134.632 522.182,134.630 523.455,134.629 524.727,134.628 526.000,134.627 527.273,134.626 528.545,134.625 529.818,134.624 531.091,134.623 532.364,134.622 533.636,134.622 534.909,134.621 536.182,134.621 537.455,134.621 538.727,134.621 540.000,134.621 541.273,134.621 542.545,134.621 543.818,134.621 545.091,134.622 546.364,134.622 547.636,134.623 548.909,134.623 550.182,134.624 551.455,134.625 552.727,134.626 554.000,134.627 555.273,134.628 556.545,134.629 557.818,134.630 559.091,134.631 560.364,134.633 561.636,134.634 562.909,134.635 564.182,134.636 565.455,134.637 566.727,134.639 568.000,134.640 569.273,134.641 570.545,134.642 571.818,134.643 573.091,134.645 574.364,134.646 575.636,134.647 576.909,134.648 578.182,134.648 579.455,134.649 580.727,134.650 582.000,134.651 583.273,134.651 584.545,134.652 585.818,134.652 587.091,134.653 588.364,134.653 589.636,134.653 590.909,134.653 592.182,134.654 593.455,134.653 594.727,134.653 596.000,134.653 597.273,134.653 598.545,134.653 599.818,134.652 601.091,134.652 602.364,134.651 603.636,134.651 604.909,134.650 606.182,134.649 607.455,134.649 608.727,134.648 610.000,134.647 611.273,134.646 612.545,134.645 613.818,134.644 615.091,134.643 616.364,134.642 617.636,134.642 618.909,134.641 620.182,134.640 621.455,134.639 622.727,134.638 624.000,134.637 625.273,134.636 626.545,134.635 627.818,134.635 629.091,134.634 630.364,134.633 631.636,134.632 632.909,134.632 634.182,134.631 635.455,134.631 636.727,134.630 638.000,134.630 639.273,134.630 640.545,134.629 641.818,134.629 643.091,134.629 644.364,134.629 645.636,134.629 646.909,134.629 648.182,134.629 649.455,134.629 650.727,134.629 652.000,134.630 653.273,134.630 654.545,134.630 655.818,134.631 657.091,134.631 658.364,134.632 659.636,134.632 660.909,134.633 662.182,134.634 663.455,134.634 664.727,134.635 666.000,134.636 667.273,134.636 668.545,134.637 669.818,134.638 671.091,134.639 672.364,134.639 673.636,134.640 674.909,134.641 676.182,134.641 677.455,134.642 678.727,134.643 680.000,134.643 681.273,134.644 682.545,134.645 683.818,134.645 685.091,134.646 686.364,134.646 687.636,134.647 688.909,134.647 690.182,134.647 691.455,134.648 692.727,134.648 694.000,134.648 695.273,134.648 696.545,134.649 697.818,134.649 699.091,134.649 700.364,134.649 701.636,134.649 702.909,134.648 704.182,134.648 705.455,134.648 706.727,134.648 708.000,134.648 709.273,134.647 710.545,134.647 711.818,134.647 713.091,134.646 714.364,134.646 715.636,134.645 716.909,134.645 718.182,134.644 719.455,134.644 720.727,134.643 722.000,134.643 723.273,134.642 724.545,134.642 725.818,134.641 727.091,134.641 728.364,134.640 729.636,134.640 730.909,134.639 732.182,134.639 733.455,134.639 734.727,134.638 736.000,134.638 737.273,134.637 738.545,134.637 739.818,134.637 741.091,134.636 742.364,134.636 743.636,134.636 744.909,134.636 746.182,134.636 747.455,134.636 748.727,134.635 750.000,134.635 751.273,134.635 752.545,134.635 753.818,134.636 755.091,134.636 756.364,134.636 757.636,134.636 758.909,134.636 760.182,134.636" fill="none" stroke="#059669" stroke-width="2"/>
<polyline points="123.818,451.818 125.091,451.818 126.364,451.818 127.636,451.818 128.909,451.818 130.182,451.818 131.455,451.818 132.727,451.818 134.000,451.818 135.273,451.818 136.545,451.818 137.818,451.818 139.091,451.818 140.364,451.818 141.636,451.818 142.909,451.818 144.182,451.818 145.455,451.818 146.727,451.818 148.000,451.818 149.273,451.818 150.545,451.818 151.818,451.818 153.091,451.818 154.364,451.818 155.636,451.818 156.909,451.818 158.182,451.818 159.455,451.818 160.727,451.818 162.000,451.818 163.273,451.818 164.545,451.818 165.818,451.818 167.091,451.818 168.364,451.818 169.636,451.818 170.909,451.818 172.182,451.818 173.455,451.818 174.727,451.818 176.000,451.818 177.273,451.818 178.545,451.818 179.818,451.818 181.091,451.818 182.364,451.818 183.636,451.818 184.909,451.818 186.182,451.818 187.455,451.818 188.727,451.818 190.000,451.818 191.273,451.818 192.545,451.818 193.818,451.818 195.091,451.818 196.364,451.818 197.636,451.818 198.909,451.818 200.182,451.818 201.455,451.818 202.727,451.818 204.000,451.818 205.273,451.818 206.545,451.818 207.818,451.818 209.091,451.818 210.364,451.818 211.636,451.818 212.909,451.818 214.182,451.818 215.455,451.818 216.727,451.818 218.000,451.818 219.273,451.818 220.545,451.818 221.818,451.818 223.091,451.818 224.364,451.818 225.636,451.818 226.909,451.818 228.182,451.818 229.455,451.818 230.727,451.818 232.000,451.818 233.273,451.818 234.545,451.818 235.818,451.818 237.091,451.818 238.364,451.818 239.636,451.818 240.909,451.818 242.182,451.818 243.455,451.818 244.727,451.818 246.000,451.818 247.273,451.818 248.545,451.818 249.818,451.818 251.091,451.818 252.364,451.818 253.636,451.818 254.909,451.818 256.182,451.818 257.455,451.818 258.727,451.818 260.000,451.818 261.273,451.818 262.545,451.818 263.818,451.818 265.091,451.818 266.364,451.818 267.636,451.818 268.909,451.818 270.182,451.818 271.455,451.818 272.727,451.818 274.000,451.818 275.273,451.818 276.545,451.818 277.818,451.818 279.091,451.818 280.364,451.818 281.636,451.818 282.909,451.818 284.182,451.818 285.455,451.818 286.727,451.818 288.000,451.818 289.273,451.818 290.545,451.818 291.818,451.818 293.091,451.818 294.364,451.818 295.636,451.818 296.909,451.818 298.182,451.818 299.455,451.818 300.727,451.818 302.000,451.818 303.273,451.818 304.545,451.818 305.818,451.818 307.091,451.818 308.364,451.818 309.636,451.818 310.909,451.818 312.182,451.818 313.455,451.818 314.727,451.818 316.000,451.818 317.273,451.818 318.545,451.818 319.818,451.818 321.091,451.818 322.364,451.818 323.636,451.818 324.909,451.818 326.182,451.818 327.455,451.818 328.727,451.818 330.000,451.818 331.273,451.818 332.545,451.818 333.818,451.818 335.091,451.818 336.364,451.818 337.636,451.818 338.909,451.818 340.182,451.818 341.455,451.818 342.727,451.818 344.000,451.818 345.273,451.818 346.545,451.818 347.818,451.818 349.091,451.818 350.364,451.818 351.636,451.818 352.909,451.818 354.182,451.818 355.455,451.818 356.727,451.818 358.000,451.818 359.273,451.818 360.545,451.818 361.818,451.818 363.091,451.818 364.364,451.818 365.636,451.818 366.909,451.818 368.182,451.818 369.455,451.818 370.727,451.818 372.000,451.818 373.273,451.818 374.545,451.818 375.818,451.818 377.091,451.818 378.364,451.818 379.636,451.818 380.909,451.818 382.182,451.818 383.455,451.818 384.727,451.818 386.000,451.818 387.273,451.818 388.545,451.818 389.818,451.818 391.091,451.818 392.364,451.818 393.636,451.818 394.909,451.818 396.182,451.818 397.455,451.818 398.727,451.818 400.000,451.818 401.273,451.818 402.545,451.818 403.818,451.818 405.091,451.818 406.364,451.818 407.636,451.818 408.909,451.818 410.182,451.818 411.455,451.818 412.727,451.818 414.000,451.818 415.273,451.818 416.545,451.818 417.818,451.818 419.091,451.818 420.364,451.818 421.636,451.818 422.909,451.818 424.182,451.818 425.455,451.818 426.727,451.818 428.000,451.818 429.273,451.818 430.545,451.818 431.818,451.818 433.091,451.818 434.364,451.818 435.636,451.818 436.909,451.818 438.182,451.818 439.455,451.818 440.727,451.818 442.000,451.818 443.273,451.818 444.545,451.818 445.818,451.818 447.091,451.818 448.364,451.818 449.636,451.818 450.909,451.818 452.182,451.818 453.455,451.818 454.727,451.818 456.000,451.818 457.273,451.818 458.545,451.818 459.818,451.818 461.091,451.818 462.364,451.818 463.636,451.818 464.909,451.818 466.182,451.818 467.455,451.818 468.727,451.818 470.000,451.818 471.273,451.818 472.545,451.818 473.818,451.818 475.091,451.818 476.364,451.818 477.636,451.818 478.909,451.818 480.182,451.818 481.455,451.818 482.727,451.818 484.000,451.818 485.273,451.818 486.545,451.818 487.818,451.818 489.091,451.818 490.364,451.818 491.636,451.818 492.909,451.818 494.182,451.818 495.455,451.818 496.727,451.818 498.000,451.818 499.273,451.818 500.545,451.818 501.818,451.818 503.091,451.818 504.364,451.818 505.636,451.818 506.909,451.818 508.182,451.818 509.455,451.818 510.727,451.818 512.000,451.818 513.273,451.818 514.545,451.818 515.818,451.818 517.091,451.818 518.364,451.818 519.636,451.818 520.909,451.818 522.182,451.818 523.455,451.818 524.727,451.818 526.000,451.818 527.273,451.818 528.545,451.818 529.818,451.818 531.091,451.818 532.364,451.818 533.636,451.818 534.909,451.818 536.182,451.818 537.455,451.818 538.727,451.818 540.000,451.818 541.273,451.818 542.545,451.818 543.818,451.818 545.091,451.818 546.364,451.818 547.636,451.818 548.909,451.818 550.182,451.818 551.455,451.818 552.727,451.818 554.000,451.818 555.273,451.818 556.545,451.818 557.818,451.818 559.091,451.818 560.364,451.818 561.636,451.818 562.909,451.818 564.182,451.818 565.455,451.818 566.727,451.818 568.000,451.818 569.273,451.818 570.545,451.818 571.818,451.818 573.091,451.818 574.364,451.818 575.636,451.818 576.909,451.818 578.182,451.818 579.455,451.818 580.727,451.818 582.000,451.818 583.273,451.818 584.545,451.818 585.818,451.818 587.091,451.818 588.364,451.818 589.636,451.818 590.909,451.818 592.182,451.818 593.455,451.818 594.727,451.818 596.000,451.818 597.273,451.818 598.545,451.818 599.818,451.818 601.091,451.818 602.364,451.818 603.636,451.818 604.909,451.818 606.182,451.818 607.455,451.818 608.727,451.818 610.000,451.818 611.273,451.818 612.545,451.818 613.818,451.818 615.091,451.818 616.364,451.818 617.636,451.818 618.909,451.818 620.182,451.818 621.455,451.818 622.727,451.818 624.000,451.818 625.273,451.818 626.545,451.818 627.818,451.818 629.091,451.818 630.364,451.818 631.636,451.818 632.909,451.818 634.182,451.818 635.455,451.818 636.727,451.818 638.000,451.818 639.273,451.818 640.545,451.818 641.818,451.818 643.091,451.818 644.364,451.818 645.636,451.818 646.909,451.818 648.182,451.818 649.455,451.818 650.727,451.818 652.000,451.818 653.273,451.818 654.545,451.818 655.818,451.818 657.091,451.818 658.364,451.818 659.636,451.818 660.909,451.818 662.182,451.818 663.455,451.818 664.727,451.818 666.000,451.818 667.273,451.818 668.545,451.818 669.818,451.818 671.091,451.818 672.364,451.818 673.636,451.818 674.909,451.818 676.182,451.818 677.455,451.818 678.727,451.818 680.000,451.818 681.273,451.818 682.545,451.818 683.818,451.818 685.091,451.818 686.364,451.818 687.636,451.818 688.909,451.818 690.182,451.818 691.455,451.818 692.727,451.818 694.000,451.818 695.273,451.818 696.545,451.818 697.818,451.818 699.091,451.818 700.364,451.818 701.636,451.818 702.909,451.818 704.182,451.818 705.455,451.818 706.727,451.818 708.000,451.818 709.273,451.818 710.545,451.818 711.818,451.818 713.091,451.818 714.364,451.818 715.636,451.818 716.909,451.818 718.182,451.818 719.455,451.818 720.727,451.818 722.000,451.818 723.273,451.818 724.545,451.818 725.818,451.818 727.091,451.818 728.364,451.818 729.636,451.818 730.909,451.818 732.182,451.818 733.455,451.818 734.727,451.818 736.000,451.818 737.273,451.818 738.545,451.818 739.818,451.818 741.091,451.818 742.364,451.818 743.636,451.818 744.909,451.818 746.182,451.818 747.455,451.818 748.727,451.818 750.000,451.818 751.273,451.818 752.545,451.818 753.818,451.818 755.091,451.818 756.364,451.818 757.636,451.818 758.909,451.818 760.182,451.818" fill="none" stroke="#7c3aed" stroke-width="2"/>
<polyline points="123.818,134.530 125.091,134.530 126.364,134.530 127.636,134.530 128.909,134.530 130.182,134.530 131.455,134.530 132.727,134.530 134.000,134.530 135.273,134.530 136.545,134.530 137.818,134.530 139.091,134.530 140.364,134.530 141.636,134.530 142.909,134.530 144.182,134.530 145.455,134.530 146.727,134.530 148.000,134.530 149.273,134.530 150.545,134.530 151.818,134.530 153.091,134.530 154.364,134.530 155.636,134.530 156.909,134.530 158.182,134.530 159.455,134.530 160.727,134.530 162.000,134.530 163.273,134.530 164.545,134.530 165.818,134.530 167.091,134.530 168.364,134.530 169.636,134.530 170.909,134.530 172.182,134.530 173.455,134.530 174.727,134.530 176.000,134.530 177.273,134.530 178.545,134.530 179.818,134.530 181.091,134.530 182.364,134.530 183.636,134.530 184.909,134.530 186.182,134.530 187.455,134.530 188.727,134.530 190.000,134.530 191.273,134.530 192.545,134.530 193.818,134.530 195.091,134.530 196.364,134.530 197.636,134.530 198.909,134.530 200.182,134.530 201.455,134.530 202.727,134.530 204.000,134.530 205.273,134.530 206.545,134.530 207.818,134.530 209.091,134.530 210.364,134.530 211.636,134.530 212.909,134.530 214.182,134.530 215.455,134.530 216.727,134.530 218.000,134.530 219.273,134.530 220.545,134.530 221.818,134.530 223.091,134.530 224.364,134.530 225.636,134.530 226.909,134.530 228.182,134.530 229.455,134.530 230.727,134.530 232.000,134.530 233.273,134.530 234.545,134.530 235.818,134.530 237.091,134.530 238.364,134.530 239.636,134.530 240.909,134.530 242.182,134.530 243.455,134.530 244.727,134.530 246.000,134.530 247.273,134.530 248.545,134.530 249.818,134.530 251.091,134.530 252.364,134.530 253.636,134.530 254.909,134.530 256.182,134.530 257.455,134.530 258.727,134.530 260.000,134.530 261.273,134.530 262.545,134.530 263.818,134.530 265.091,134.530 266.364,134.530 267.636,134.530 268.909,134.530 270.182,134.530 271.455,134.530 272.727,134.530 274.000,134.530 275.273,134.530 276.545,134.530 277.818,134.530 279.091,134.530 280.364,134.530 281.636,134.530 282.909,134.530 284.182,134.530 285.455,134.530 286.727,134.530 288.000,134.530 289.273,134.530 290.545,134.530 291.818,134.530 293.091,134.530 294.364,134.530 295.636,134.530 296.909,134.530 298.182,134.530 299.455,134.530 300.727,134.530 302.000,134.530 303.273,134.530 304.545,134.530 305.818,134.530 307.091,134.530 308.364,134.530 309.636,134.530 310.909,134.530 312.182,134.530 313.455,134.530 314.727,134.530 316.000,134.530 317.273,134.530 318.545,134.530 319.818,134.530 321.091,134.530 322.364,134.530 323.636,134.530 324.909,134.530 326.182,134.530 327.455,134.530 328.727,134.530 330.000,134.530 331.273,134.530 332.545,134.530 333.818,134.530 335.091,134.530 336.364,134.530 337.636,134.530 338.909,134.530 340.182,134.530 341.455,134.530 342.727,134.530 344.000,134.530 345.273,134.530 346.545,134.530 347.818,134.530 349.091,134.530 350.364,134.530 351.636,134.530 352.909,134.530 354.182,134.530 355.455,134.530 356.727,134.530 358.000,134.530 359.273,134.530 360.545,134.530 361.818,134.530 363.091,134.530 364.364,134.530 365.636,134.530 366.909,134.530 368.182,134.530 369.455,134.530 370.727,134.530 372.000,134.530 373.273,134.530 374.545,134.530 375.818,134.530 377.091,134.530 378.364,134.530 379.636,134.530 380.909,134.530 382.182,134.530 383.455,134.530 384.727,134.530 386.000,134.530 387.273,134.530 388.545,134.530 389.818,134.530 391.091,134.530 392.364,134.530 393.636,134.530 394.909,134.530 396.182,134.530 397.455,134.530 398.727,134.530 400.000,134.530 401.273,134.530 402.545,134.530 403.818,134.530 405.091,134.530 406.364,134.530 407.636,134.530 408.909,134.530 410.182,134.530 411.455,134.530 412.727,134.530 414.000,134.530 415.273,134.530 416.545,134.530 417.818,134.530 419.091,134.530 420.364,134.530 421.636,134.530 422.909,134.530 424.182,134.530 425.455,134.530 426.727,134.530 428.000,134.530 429.273,134.530 430.545,134.530 431.818,134.530 433.091,134.530 434.364,134.530 435.636,134.530 436.909,134.530 438.182,134.530 439.455,134.530 440.727,134.530 442.000,134.530 443.273,134.530 444.545,134.530 445.818,134.530 447.091,134.530 448.364,134.530 449.636,134.530 450.909,134.530 452.182,134.530 453.455,134.530 454.727,134.530 456.000,134.530 457.273,134.530 458.545,134.530 459.818,134.530 461.091,134.530 462.364,134.530 463.636,134.530 464.909,134.530 466.182,134.530 467.455,134.530 468.727,134.530 470.000,134.530 471.273,134.530 472.545,134.530 473.818,134.530 475.091,134.530 476.364,134.530 477.636,134.530 478.909,134.530 480.182,134.530 481.455,134.530 482.727,134.530 484.000,134.530 485.273,134.530 486.545,134.530 487.818,134.530 489.091,134.530 490.364,134.530 491.636,134.530 492.909,134.530 494.182,134.530 495.455,134.530 496.727,134.530 498.000,134.530 499.273,134.530 500.545,134.530 501.818,134.530 503.091,134.530 504.364,134.530 505.636,134.530 506.909,134.530 508.182,134.530 509.455,134.530 510.727,134.530 512.000,134.530 513.273,134.530 514.545,134.530 515.818,134.530 517.091,134.530 518.364,134.530 519.636,134.530 520.909,134.530 522.182,134.530 523.455,134.530 524.727,134.530 526.000,134.530 527.273,134.530 528.545,134.530 529.818,134.530 531.091,134.530 532.364,134.530 533.636,134.530 534.909,134.530 536.182,134.530 537.455,134.530 538.727,134.530 540.000,134.530 541.273,134.530 542.545,134.530 543.818,134.530 545.091,134.530 546.364,134.530 547.636,134.530 548.909,134.530 550.182,134.530 551.455,134.530 552.727,134.530 554.000,134.530 555.273,134.530 556.545,134.530 557.818,134.530 559.091,134.530 560.364,134.530 561.636,134.530 562.909,134.530 564.182,134.530 565.455,134.530 566.727,134.530 568.000,134.530 569.273,134.530 570.545,134.530 571.818,134.530 573.091,134.530 574.364,134.530 575.636,134.530 576.909,134.530 578.182,134.530 579.455,134.530 580.727,134.530 582.000,134.530 583.273,134.530 584.545,134.530 585.818,134.530 587.091,134.530 588.364,134.530 589.636,134.530 590.909,134.530 592.182,134.530 593.455,134.530 594.727,134.530 596.000,134.530 597.273,134.530 598.545,134.530 599.818,134.530 601.091,134.530 602.364,134.530 603.636,134.530 604.909,134.530 606.182,134.530 607.455,134.530 608.727,134.530 610.000,134.530 611.273,134.530 612.545,134.530 613.818,134.530 615.091,134.530 616.364,134.530 617.636,134.530 618.909,134.530 620.182,134.530 621.455,134.530 622.727,134.530 624.000,134.530 625.273,134.530 626.545,134.530 627.818,134.530 629.091,134.530 630.364,134.530 631.636,134.530 632.909,134.530 634.182,134.530 635.455,134.530 636.727,134.530 638.000,134.530 639.273,134.530 640.545,134.530 641.818,134.530 643.091,134.530 644.364,134.530 645.636,134.530 646.909,134.530 648.182,134.530 649.455,134.530 650.727,134.530 652.000,134.530 653.273,134.530 654.545,134.530 655.818,134.530 657.091,134.530 658.364,134.530 659.636,134.530 660.909,134.530 662.182,134.530 663.455,134.530 664.727,134.530 666.000,134.530 667.273,134.530 668.545,134.530 669.818,134.530 671.091,134.530 672.364,134.530 673.636,134.530 674.909,134.530 676.182,134.530 677.455,134.530 678.727,134.530 680.000,134.530 681.273,134.530 682.545,134.530 683.818,134.530 685.091,134.530 686.364,134.530 687.636,134.530 688.909,134.530 690.182,134.530 691.455,134.530 692.727,134.530 694.000,134.530 695.273,134.530 696.545,134.530 697.818,134.530 699.091,134.530 700.364,134.530 701.636,134.530 702.909,134.530 704.182,134.530 705.455,134.530 706.727,134.530 708.000,134.530 709.273,134.530 710.545,134.530 711.818,134.530 713.091,134.530 714.364,134.530 715.636,134.530 716.909,134.530 718.182,134.530 719.455,134.530 720.727,134.530 722.000,134.530 723.273,134.530 724.545,134.530 725.818,134.530 727.091,134.530 728.364,134.530 729.636,134.530 730.909,134.530 732.182,134.530 733.455,134.530 734.727,134.530 736.000,134.530 737.273,134.530 738.545,134.530 739.818,134.530 741.091,134.530 742.364,134.530 743.636,134.530 744.909,134.530 746.182,134.530 747.455,134.530 748.727,134.530 750.000,134.530 751.273,134.530 752.545,134.530 753.818,134.530 755.091,134.530 756.364,134.530 757.636,134.530 758.909,134.530 760.182,134.530" fill="none" stroke="#d97706" stroke-width="2"/>
<polyline points="123.818,158.434 125.091,161.357 126.364,164.127 127.636,166.730 128.909,169.149 130.182,171.372 131.455,173.386 132.727,175.179 134.000,176.741 135.273,178.063 136.545,179.138 137.818,179.959 139.091,180.522 140.364,180.825 141.636,180.864 142.909,180.640 144.182,180.153 145.455,179.408 146.727,178.408 148.000,177.159 149.273,175.667 150.545,173.942 151.818,171.992 153.091,169.830 154.364,167.468 155.636,164.918 156.909,162.196 158.182,159.316 159.455,156.296 160.727,153.152 162.000,149.902 163.273,146.565 164.545,143.160 165.818,139.706 167.091,136.222 168.364,132.729 169.636,129.246 170.909,125.793 172.182,122.390 173.455,119.056 174.727,115.810 176.000,112.670 177.273,109.654 178.545,106.780 179.818,104.064 181.091,101.521 182.364,99.165 183.636,97.010 184.909,95.069 186.182,93.352 187.455,91.869 188.727,90.628 190.000,89.637 191.273,88.901 192.545,88.424 193.818,88.209 195.091,88.258 196.364,88.570 197.636,89.142 198.909,89.973 200.182,91.057 201.455,92.388 202.727,93.958 204.000,95.759 205.273,97.781 206.545,100.011 207.818,102.438 209.091,105.046 210.364,107.823 211.636,110.751 212.909,113.815 214.182,116.996 215.455,120.276 216.727,123.638 218.000,127.062 219.273,130.528 220.545,134.017 221.818,137.509 223.091,140.984 224.364,144.423 225.636,147.805 226.909,151.112 228.182,154.325 229.455,157.425 230.727,160.395 232.000,163.219 233.273,165.879 234.545,168.361 235.818,170.651 237.091,172.736 238.364,174.604 239.636,176.244 240.909,177.647 242.182,178.805 243.455,179.712 244.727,180.362 246.000,180.751 247.273,180.878 248.545,180.741 249.818,180.342 251.091,179.683 252.364,178.767 253.636,177.600 254.909,176.188 256.182,174.540 257.455,172.664 258.727,170.572 260.000,168.274 261.273,165.785 262.545,163.119 263.818,160.290 265.091,157.314 266.364,154.210 267.636,150.993 268.909,147.683 270.182,144.298 271.455,140.858 272.727,137.382 274.000,133.889 275.273,130.401 276.545,126.935 277.818,123.513 279.091,120.154 280.364,116.876 281.636,113.699 282.909,110.640 284.182,107.717 285.455,104.946 286.727,102.343 288.000,99.923 289.273,97.700 290.545,95.686 291.818,93.893 293.091,92.331 294.364,91.009 295.636,89.934 296.909,89.112 298.182,88.548 299.455,88.246 300.727,88.207 302.000,88.431 303.273,88.917 304.545,89.662 305.818,90.663 307.091,91.912 308.364,93.404 309.636,95.129 310.909,97.078 312.182,99.241 313.455,101.603 314.727,104.153 316.000,106.875 317.273,109.755 318.545,112.775 319.818,115.919 321.091,119.169 322.364,122.506 323.636,125.912 324.909,129.366 326.182,132.850 327.455,136.343 328.727,139.826 330.000,143.280 331.273,146.683 332.545,150.017 333.818,153.263 335.091,156.403 336.364,159.419 337.636,162.293 338.909,165.010 340.182,167.553 341.455,169.909 342.727,172.063 344.000,174.005 345.273,175.722 346.545,177.205 347.818,178.446 349.091,179.437 350.364,180.173 351.636,180.650 352.909,180.864 354.182,180.816 355.455,180.504 356.727,179.931 358.000,179.100 359.273,178.016 360.545,176.685 361.818,175.114 363.091,173.313 364.364,171.292 365.636,169.061 366.909,166.634 368.182,164.025 369.455,161.249 370.727,158.320 372.000,155.257 373.273,152.075 374.545,148.794 375.818,145.432 377.091,142.008 378.364,138.541 379.636,135.052 380.909,131.560 382.182,128.084 383.455,124.646 384.727,121.263 386.000,117.956 387.273,114.743 388.545,111.642 389.818,108.672 391.091,105.848 392.364,103.188 393.636,100.705 394.909,98.415 396.182,96.330 397.455,94.462 398.727,92.822 400.000,91.419 401.273,90.260 402.545,89.354 403.818,88.704 405.091,88.314 406.364,88.187 407.636,88.324 408.909,88.723 410.182,89.382 411.455,90.298 412.727,91.465 414.000,92.877 415.273,94.525 416.545,96.401 417.818,98.494 419.091,100.791 420.364,103.280 421.636,105.947 422.909,108.776 424.182,111.751 425.455,114.856 426.727,118.073 428.000,121.383 429.273,124.768 430.545,128.208 431.818,131.685 433.091,135.177 434.364,138.666 435.636,142.131 436.909,145.554 438.182,148.913 439.455,152.191 440.727,155.369 442.000,158.428 443.273,161.351 444.545,164.122 445.818,166.725 447.091,169.145 448.364,171.368 449.636,173.382 450.909,175.175 452.182,176.737 453.455,178.060 454.727,179.135 456.000,179.956 457.273,180.520 458.545,180.822 459.818,180.861 461.091,180.637 462.364,180.151 463.636,179.406 464.909,178.405 466.182,177.156 467.455,175.664 468.727,173.939 470.000,171.989 471.273,169.827 472.545,167.464 473.818,164.914 475.091,162.192 476.364,159.312 477.636,156.291 478.909,153.147 480.182,149.897 481.455,146.560 482.727,143.154 484.000,139.700 485.273,136.216 486.545,132.722 487.818,129.239 489.091,125.785 490.364,122.382 491.636,119.047 492.909,115.801 494.182,112.661 495.455,109.645 496.727,106.770 498.000,104.054 499.273,101.510 500.545,99.154 501.818,96.999 503.091,95.058 504.364,93.341 505.636,91.857 506.909,90.617 508.182,89.625 509.455,88.889 510.727,88.412 512.000,88.198 513.273,88.246 514.545,88.558 515.818,89.131 517.091,89.962 518.364,91.046 519.636,92.377 520.909,93.947 522.182,95.749 523.455,97.770 524.727,100.001 526.000,102.428 527.273,105.037 528.545,107.813 529.818,110.742 531.091,113.806 532.364,116.987 533.636,120.268 534.909,123.631 536.182,127.055 537.455,130.521 538.727,134.011 540.000,137.503 541.273,140.979 542.545,144.418 543.818,147.800 545.091,151.108 546.364,154.321 547.636,157.421 548.909,160.392 550.182,163.216 551.455,165.876 552.727,168.359 554.000,170.649 555.273,172.734 556.545,174.602 557.818,176.243 559.091,177.646 560.364,178.804 561.636,179.711 562.909,180.361 564.182,180.751 565.455,180.878 566.727,180.741 568.000,180.342 569.273,179.683 570.545,178.767 571.818,177.600 573.091,176.188 574.364,174.540 575.636,172.664 576.909,170.571 578.182,168.274 579.455,165.784 580.727,163.118 582.000,160.289 583.273,157.313 584.545,154.208 585.818,150.991 587.091,147.681 588.364,144.296 589.636,140.855 590.909,137.379 592.182,133.886 593.455,130.397 594.727,126.931 596.000,123.509 597.273,120.149 598.545,116.871 599.818,113.694 601.091,110.634 602.364,107.711 603.636,104.940 604.909,102.337 606.182,99.917 607.455,97.693 608.727,95.679 610.000,93.886 611.273,92.324 612.545,91.001 613.818,89.926 615.091,89.104 616.364,88.541 617.636,88.238 618.909,88.199 620.182,88.423 621.455,88.909 622.727,89.654 624.000,90.655 625.273,91.904 626.545,93.396 627.818,95.121 629.091,97.071 630.364,99.233 631.636,101.596 632.909,104.146 634.182,106.869 635.455,109.748 636.727,112.769 638.000,115.913 639.273,119.163 640.545,122.501 641.818,125.907 643.091,129.361 644.364,132.845 645.636,136.339 646.909,139.822 648.182,143.276 649.455,146.679 650.727,150.014 652.000,153.261 653.273,156.401 654.545,159.417 655.818,162.291 657.091,165.008 658.364,167.552 659.636,169.908 660.909,172.063 662.182,174.004 663.455,175.722 664.727,177.205 666.000,178.446 667.273,179.437 668.545,180.174 669.818,180.650 671.091,180.865 672.364,180.816 673.636,180.505 674.909,179.932 676.182,179.101 677.455,178.017 678.727,176.686 680.000,175.115 681.273,173.314 682.545,171.293 683.818,169.062 685.091,166.635 686.364,164.026 687.636,161.249 688.909,158.321 690.182,155.257 691.455,152.075 692.727,148.794 694.000,145.431 695.273,142.007 696.545,138.540 697.818,135.051 699.091,131.558 700.364,128.083 701.636,124.644 702.909,121.261 704.182,117.954 705.455,114.740 706.727,111.639 708.000,108.669 709.273,105.845 710.545,103.184 711.818,100.702 713.091,98.411 714.364,96.326 715.636,94.458 716.909,92.817 718.182,91.414 719.455,90.256 720.727,89.349 722.000,88.699 723.273,88.309 724.545,88.182 725.818,88.318 727.091,88.717 728.364,89.376 729.636,90.292 730.909,91.459 732.182,92.871 733.455,94.520 734.727,96.396 736.000,98.488 737.273,100.786 738.545,103.275 739.818,105.942 741.091,108.771 742.364,111.746 743.636,114.851 744.909,118.068 746.182,121.379 747.455,124.764 748.727,128.204 750.000,131.681 751.273,135.174 752.545,138.663 753.818,142.129 755.091,145.551 756.364,148.911 757.636,152.189 758.909,155.367 760.182,158.426" fill="none" stroke="#0891b2" stroke-width="2"/>
<text x="442.0" y="535" text-anchor="middle" font-family="sans-serif" font-size="14" fill="#334155">time (s)</text>
<text x="24" y="270.0" text-anchor="middle" transform="rotate(-90 24 270.0)" font-family="sans-serif" font-size="14" fill="#334155">machine response (units in legend)</text>
<line x1="816.0" y1="90.0" x2="836.0" y2="90.0" stroke="#2563eb" stroke-width="3"/>
<text x="844.0" y="94.0" font-family="sans-serif" font-size="12" fill="#334155">branch_current_branch_fixed_1</text>
<line x1="816.0" y1="110.0" x2="836.0" y2="110.0" stroke="#dc2626" stroke-width="3"/>
<text x="844.0" y="114.0" font-family="sans-serif" font-size="12" fill="#334155">branch_current_branch_fixed_7</text>
<line x1="816.0" y1="130.0" x2="836.0" y2="130.0" stroke="#059669" stroke-width="3"/>
<text x="844.0" y="134.0" font-family="sans-serif" font-size="12" fill="#334155">branch_current_branch_fixed_9</text>
<line x1="816.0" y1="150.0" x2="836.0" y2="150.0" stroke="#7c3aed" stroke-width="3"/>
<text x="844.0" y="154.0" font-family="sans-serif" font-size="12" fill="#334155">branch_current_branch_fixed_10</text>
<line x1="816.0" y1="170.0" x2="836.0" y2="170.0" stroke="#d97706" stroke-width="3"/>
<text x="844.0" y="174.0" font-family="sans-serif" font-size="12" fill="#334155">power_zero_axis_current_A</text>
<line x1="816.0" y1="190.0" x2="836.0" y2="190.0" stroke="#0891b2" stroke-width="3"/>
<text x="844.0" y="194.0" font-family="sans-serif" font-size="12" fill="#334155">armature_axis_1_current_A</text>
</svg>
